<?xml version="1.0" encoding="utf-8"?>
<!-- Generator: Adobe Illustrator 13.0.2, SVG Export Plug-In . SVG Version: 6.00 Build 14948)  -->
<!DOCTYPE svg PUBLIC "-//W3C//DTD SVG 1.0//EN" "http://www.w3.org/TR/2001/REC-SVG-20010904/DTD/svg10.dtd">
<svg version="1.0" id="Ebene_1" xmlns="http://www.w3.org/2000/svg" xmlns:xlink="http://www.w3.org/1999/xlink" x="0px" y="0px"
	 width="527.244px" height="352.208px" viewBox="0 0 527.244 352.208" enable-background="new 0 0 527.244 352.208"
	 xml:space="preserve">
<path fill-rule="evenodd" clip-rule="evenodd" d="M336.354,245.168l-47.522,107.039h81.205l47.522-107.039H336.354L336.354,245.168
	L336.354,245.168L336.354,245.168z M366.935,346.688h-70.084l42.577-95.959h70.131L366.935,346.688L366.935,346.688L366.935,346.688
	z"/>
<path fill-rule="evenodd" clip-rule="evenodd" d="M347.733,267.317l-10.433,23.531h37.831l10.477-23.531H347.733L347.733,267.317
	L347.733,267.317L347.733,267.317z M372.07,285.282h-26.757l5.525-12.463h26.76L372.07,285.282L372.07,285.282L372.07,285.282z"/>
<path fill-rule="evenodd" clip-rule="evenodd" d="M423.718,245.168l-47.522,107.039H457.4l47.522-107.039H423.718L423.718,245.168
	L423.718,245.168L423.718,245.168z M454.298,346.688h-70.084l42.577-95.959h70.131L454.298,346.688L454.298,346.688L454.298,346.688
	z"/>
<path fill-rule="evenodd" clip-rule="evenodd" d="M472.972,267.317h-37.875l-28.11,62.227h37.834L472.972,267.317L472.972,267.317z
	 M441.756,323.983L441.756,323.983h-26.76l23.206-51.164h26.763L441.756,323.983L441.756,323.983z"/>
<polygon fill-rule="evenodd" clip-rule="evenodd" points="355.556,324.504 328.79,324.504 334.321,312.042 361.078,312.042 
	355.556,324.504 358.661,330.006 369.091,306.475 331.257,306.475 320.78,330.006 358.661,330.006 355.556,324.504 355.556,324.504 
	"/>
<path fill-rule="evenodd" clip-rule="evenodd" fill="#009932" d="M289.866,84.897c-18.454,45.677-70.362,44.984-70.362,44.984
	H94.696l6.693-14.993h115.118C216.507,114.888,266.797,115.807,289.866,84.897L289.866,84.897L289.866,84.897z"/>
<path fill-rule="evenodd" clip-rule="evenodd" fill="#009932" d="M279.598,107.965c-18.454,45.678-70.361,44.984-70.361,44.984
	H84.431l6.691-14.993H206.24C206.24,137.957,256.531,138.875,279.598,107.965L279.598,107.965L279.598,107.965z"/>
<path fill-rule="evenodd" clip-rule="evenodd" fill="#009932" d="M318.126,68.056c18.454-45.678,70.362-44.987,70.362-44.987
	h128.493l-6.691,14.996H391.485C391.485,38.064,341.191,37.142,318.126,68.056L318.126,68.056L318.126,68.056z"/>
<path fill-rule="evenodd" clip-rule="evenodd" fill="#009932" d="M328.392,44.987C346.849-0.691,398.751,0,398.751,0h128.493
	l-6.686,14.996H401.751C401.751,14.996,351.46,14.073,328.392,44.987L328.392,44.987L328.392,44.987z"/>
<path fill-rule="evenodd" clip-rule="evenodd" fill="#FFFFFF" d="M269.335,131.035c-18.454,45.677-70.365,44.982-70.365,44.982
	h-124.8l6.69-14.993h115.112C195.971,161.025,246.265,161.948,269.335,131.035L269.335,131.035L269.335,131.035z"/>
<path fill-rule="evenodd" clip-rule="evenodd" fill="#FFFFFF" d="M307.86,91.124c18.457-45.677,70.362-44.987,70.362-44.987h128.493
	l-6.691,14.996H381.223C381.223,61.133,330.929,60.21,307.86,91.124L307.86,91.124L307.86,91.124z"/>
<path fill-rule="evenodd" clip-rule="evenodd" fill="#DC3417" d="M259.068,154.104c-18.457,45.684-70.361,44.993-70.361,44.993
	H63.904l6.691-15.006h115.11C185.706,184.09,235.998,185.016,259.068,154.104L259.068,154.104L259.068,154.104z"/>
<path fill-rule="evenodd" clip-rule="evenodd" fill="#DC3417" d="M248.802,177.172c-18.458,45.684-70.362,44.986-70.362,44.986
	H53.637l6.691-14.994H175.44C175.44,207.165,225.731,208.09,248.802,177.172L248.802,177.172L248.802,177.172z"/>
<path fill-rule="evenodd" clip-rule="evenodd" fill="#DC3417" d="M287.326,137.262c18.457-45.678,70.365-44.984,70.365-44.984
	h128.493l-6.688,14.994H360.691C360.691,107.272,310.395,106.353,287.326,137.262L287.326,137.262L287.326,137.262z"/>
<path fill-rule="evenodd" clip-rule="evenodd" fill="#DC3417" d="M297.595,114.194c18.457-45.678,70.359-44.984,70.359-44.984
	h128.493l-6.686,14.994H370.954C370.954,84.204,320.663,83.278,297.595,114.194L297.595,114.194L297.595,114.194z"/>
<polygon fill-rule="evenodd" clip-rule="evenodd" points="58.491,314.848 49.26,314.848 85.815,232.776 48.911,232.776 0,342.581 
	83.045,342.581 131.955,232.776 95.045,232.776 58.491,314.848 58.491,314.848 "/>
<path fill-rule="evenodd" clip-rule="evenodd" d="M343.503,149.721h27.683l13.263-30.45H346.5
	c-85.122,0-80.511,113.505-168.176,113.505h-37.143L92.276,342.581h36.681c95.506,0,74.742-109.805,162.869-109.805l14.763-33.668
	c-79.356,0-90.431,115.74-158.716,115.74h-8.174l5.332-11.982h16.22c59.06,0,74.747-114.393,156.412-114.393h36.22l12.686-28.141
	h-37.831c-39.258,0-61.306,22.657-79.666,47.553C269.505,179.092,291.996,149.721,343.503,149.721L343.503,149.721L343.503,149.721
	L343.503,149.721z M173.71,272.098h-14.974l4.151-9.34h8.978c33.964,0,51.864-19.775,68.593-42.779
	C221.871,246.604,204.998,272.098,173.71,272.098L173.71,272.098L173.71,272.098z"/>
<path fill-rule="evenodd" clip-rule="evenodd" d="M392.64,119.271l-13.532,30.432h46.102l-4.708,10.629h-46.028l-30.741,68.752
	h81.202l48.905-109.813H392.64L392.64,119.271L392.64,119.271L392.64,119.271z M392.118,199.167l4.79-10.74h11.071l-4.787,10.74
	H392.118L392.118,199.167L392.118,199.167z"/>
</svg>
