<?xml version="1.0" standalone="no"?>
<!DOCTYPE svg PUBLIC "-//W3C//DTD SVG 20010904//EN"
 "http://www.w3.org/TR/2001/REC-SVG-20010904/DTD/svg10.dtd">
<svg version="1.0" xmlns="http://www.w3.org/2000/svg"
 width="946.000000pt" height="1280.000000pt" viewBox="0 0 946.000000 1280.000000"
 preserveAspectRatio="xMidYMid meet">
<metadata>
Created by potrace 1.15, written by Peter Selinger 2001-2017
</metadata>
<g transform="translate(0.000000,1280.000000) scale(0.100000,-0.100000)"
fill="#000000" stroke="none">
<path d="M2779 12753 c-69 -161 -78 -190 -83 -273 -3 -53 -2 -69 3 -43 4 23
16 52 26 63 l19 20 32 -31 32 -31 33 23 33 23 -29 6 c-64 14 -81 35 -86 115
-4 45 8 68 47 93 34 22 35 24 19 42 -9 10 -14 24 -10 29 3 6 1 11 -5 11 -6 0
-20 -21 -31 -47z"/>
<path d="M3020 12545 c0 -8 -8 -15 -18 -15 -33 0 -13 -79 37 -144 42 -56 64
-116 42 -116 -21 0 -11 -18 14 -24 19 -5 25 -13 25 -35 0 -22 9 -34 39 -54 29
-19 62 -63 124 -163 88 -142 95 -169 51 -180 -13 -4 -34 -19 -45 -35 -33 -47
-68 -59 -167 -59 -73 0 -91 -3 -96 -16 -9 -22 -8 -24 9 -24 25 0 17 -36 -11
-48 -18 -9 -31 -9 -45 -2 -14 8 -20 8 -23 -2 -13 -40 -12 -59 1 -75 14 -17 14
-17 9 0 -8 26 1 21 36 -19 32 -36 32 -36 49 -16 13 17 22 19 51 13 20 -5 43
-4 52 1 10 6 21 7 24 3 12 -12 7 -129 -8 -162 -12 -28 -12 -36 5 -73 18 -40
20 -41 55 -35 36 6 38 5 44 -25 3 -18 15 -45 26 -61 16 -22 19 -33 11 -48 -9
-17 -16 -18 -43 -10 -45 12 -61 11 -83 -5 -19 -13 -18 -15 7 -52 15 -22 34
-59 44 -84 21 -58 59 -93 90 -86 21 6 24 3 24 -19 0 -14 -5 -25 -11 -25 -11 0
-9 -16 5 -50 5 -13 -10 -15 -111 -12 l-118 3 -47 46 c-46 46 -48 46 -85 35
-31 -9 -43 -21 -70 -69 -17 -32 -45 -111 -62 -177 -27 -110 -29 -122 -15 -154
17 -42 17 -42 -1 -42 -21 0 -19 -19 10 -65 13 -22 24 -44 24 -50 0 -5 -4 -2
-10 8 -6 10 -21 17 -37 16 -41 -2 -83 18 -129 63 -40 40 -44 41 -69 28 -32
-18 -40 -33 -49 -92 l-7 -47 38 -3 39 -3 3 -50 c2 -41 -3 -59 -28 -98 -22 -34
-36 -47 -46 -43 -9 3 -21 6 -28 6 -8 0 -25 18 -40 40 -21 31 -33 40 -55 40
-23 0 -30 5 -35 28 -4 15 -10 36 -13 46 -4 14 -1 18 11 13 25 -10 72 12 84 38
9 20 5 37 -25 104 -30 67 -40 81 -59 81 -25 0 -47 47 -42 91 3 24 2 24 -102
29 -87 4 -126 1 -231 -21 -124 -25 -129 -26 -230 -11 -83 12 -113 13 -149 3
-62 -17 -139 -70 -177 -123 l-32 -45 29 -22 c36 -26 38 -44 8 -65 -30 -21 -34
-20 -43 7 -4 14 -8 17 -12 9 -4 -10 -8 -9 -19 5 -12 16 -13 15 -8 -14 4 -19 2
-39 -5 -46 -6 -8 -15 -49 -21 -93 -6 -43 -16 -90 -21 -103 -17 -40 12 -58 106
-65 44 -3 95 -9 113 -12 34 -7 54 -24 28 -24 -22 0 -33 -26 -49 -121 -11 -58
-12 -88 -5 -96 8 -10 6 -13 -5 -13 -19 0 -40 -56 -28 -78 5 -10 12 -57 16
-105 6 -79 4 -94 -16 -145 -13 -31 -45 -88 -73 -127 l-50 -70 -23 -170 c-13
-93 -27 -172 -31 -176 -4 -4 -43 1 -87 12 -87 22 -203 21 -230 -1 -22 -18 -19
-73 5 -95 29 -26 25 -33 -18 -37 -27 -2 -36 -7 -33 -18 2 -8 5 -34 5 -58 1
-35 6 -45 31 -62 17 -11 46 -20 65 -20 19 0 59 -12 89 -25 l54 -26 24 22 c12
13 25 21 27 18 2 -2 19 -35 39 -74 l35 -70 -26 -69 c-26 -70 -26 -71 2 -136 5
-12 -4 -19 -37 -27 -34 -9 -46 -19 -60 -47 -12 -26 -23 -36 -39 -36 -17 0 -31
-13 -50 -45 -27 -44 -29 -45 -77 -45 -46 0 -50 -2 -56 -29 -4 -21 -15 -33 -36
-40 -37 -13 -41 -56 -6 -66 12 -4 41 -26 65 -48 42 -41 55 -77 27 -77 -8 0
-23 -17 -34 -38 -11 -21 -31 -44 -45 -51 -23 -13 -28 -12 -45 3 -18 17 -24 15
-126 -28 l-106 -46 -41 21 -41 21 7 -36 c7 -39 2 -43 -28 -21 -11 8 -30 15
-43 15 -12 0 -27 9 -33 20 -8 15 -21 20 -50 20 -31 0 -43 6 -63 31 -19 25 -29
30 -47 24 -12 -4 -18 -10 -12 -14 10 -6 44 -81 37 -81 -2 0 -24 9 -50 20 l-47
20 -25 -20 c-14 -11 -32 -20 -39 -20 -7 0 -25 -5 -39 -10 l-26 -10 22 -31 c21
-30 21 -32 5 -66 -16 -33 -14 -53 4 -53 5 0 21 -5 36 -10 21 -8 24 -14 16 -22
-26 -26 -13 -57 31 -79 23 -12 43 -23 45 -24 2 -2 -4 -17 -12 -34 -9 -16 -16
-34 -16 -39 0 -5 25 -43 55 -86 l55 -76 -7 -91 c-4 -60 -3 -93 5 -97 23 -15
-4 -64 -84 -155 l-84 -95 0 -56 c0 -61 3 -63 57 -41 38 16 61 11 30 -7 -17 -9
-17 -11 -2 -28 19 -21 14 -25 -37 -34 -45 -8 -125 -71 -158 -125 -28 -47 -47
-52 -56 -16 -6 25 -28 32 -52 16 -12 -7 -11 -14 2 -39 9 -17 16 -45 16 -61 l0
-30 49 6 c28 3 57 3 66 -1 14 -5 14 -8 0 -30 -15 -23 -15 -26 4 -45 11 -11 32
-23 45 -27 22 -5 24 -10 20 -42 -11 -79 -13 -82 -44 -82 -26 0 -30 -4 -30 -28
0 -21 -7 -32 -26 -41 l-26 -12 26 -20 c20 -16 26 -29 26 -60 0 -35 3 -39 24
-39 42 0 56 -11 82 -61 14 -28 31 -49 40 -49 11 0 15 -6 11 -20 -4 -16 -1 -18
22 -14 18 4 32 0 43 -13 16 -17 14 -22 -26 -89 -40 -65 -43 -72 -32 -105 10
-32 14 -34 66 -39 67 -6 83 -15 74 -42 -4 -12 0 -24 11 -32 15 -11 15 -16 -4
-65 l-20 -54 30 -38 29 -37 -23 -26 c-21 -23 -26 -24 -37 -11 -21 26 -39 17
-62 -32 -20 -40 -30 -49 -75 -66 l-52 -19 6 -44 c6 -42 5 -44 -26 -55 -30 -11
-41 -32 -22 -44 6 -3 -1 -34 -16 -73 l-25 -67 28 -87 c15 -48 30 -86 33 -85 3
1 16 -4 29 -11 17 -10 22 -22 22 -50 0 -31 6 -40 36 -60 19 -13 40 -36 45 -51
8 -22 15 -28 30 -24 14 4 31 -5 54 -27 26 -25 39 -31 57 -27 14 4 33 1 44 -7
17 -12 19 -22 14 -85 -5 -70 -6 -73 -53 -115 -34 -32 -47 -51 -47 -71 0 -17
-11 -37 -31 -56 -17 -16 -28 -33 -25 -38 4 -5 0 -11 -6 -14 -10 -3 -10 -9 -1
-25 10 -16 9 -23 -5 -35 -13 -12 -16 -28 -14 -67 l4 -51 32 6 c27 5 41 -1 99
-45 64 -48 80 -74 38 -63 -21 5 -37 -12 -21 -22 15 -9 13 -102 -2 -108 -7 -3
3 -5 22 -5 19 0 29 2 23 5 -15 5 -18 89 -4 97 4 3 19 -6 32 -20 24 -25 24 -26
4 -40 -19 -14 -19 -15 0 -51 11 -20 35 -45 52 -56 26 -15 32 -24 27 -42 -4
-15 0 -24 10 -28 9 -4 16 -18 16 -32 0 -16 6 -25 15 -25 11 0 14 -7 9 -24 -9
-37 12 -66 46 -66 17 0 39 -5 49 -12 30 -19 54 7 46 49 -8 44 0 55 30 41 18
-8 28 -8 38 1 11 9 24 3 61 -25 25 -19 50 -33 55 -30 13 9 21 -19 21 -75 0
-47 1 -49 20 -39 11 6 20 19 20 30 0 10 5 22 10 25 6 3 10 -1 10 -9 0 -9 8
-16 19 -16 10 0 22 -7 25 -16 3 -8 14 -14 23 -12 10 1 24 -1 30 -5 7 -4 22 -3
33 3 17 9 27 8 48 -6 25 -16 26 -16 40 4 8 12 25 22 38 22 13 0 24 6 24 13 0
24 17 39 54 47 30 7 36 6 32 -6 -4 -10 3 -14 28 -14 35 0 53 -19 35 -37 -7 -7
-4 -23 7 -46 14 -29 28 -40 67 -54 28 -10 52 -25 55 -35 4 -17 19 -22 95 -33
34 -5 53 -3 70 8 21 14 25 13 57 -13 34 -27 34 -28 77 -12 43 16 44 16 66 -10
25 -30 73 -55 196 -104 47 -18 79 -33 70 -34 -22 0 -69 -76 -105 -168 -25 -62
-35 -76 -66 -93 -21 -10 -42 -28 -48 -38 -5 -11 -20 -21 -32 -23 -15 -2 -24
-13 -30 -34 -5 -19 -31 -51 -72 -87 -88 -78 -116 -128 -116 -210 0 -51 -4 -67
-20 -82 -32 -29 -71 -170 -64 -231 6 -48 5 -52 -24 -72 -20 -15 -32 -34 -36
-58 -4 -19 -35 -86 -69 -147 -52 -94 -62 -123 -69 -180 -6 -62 -4 -74 19 -121
l25 -52 -36 -72 c-21 -41 -36 -86 -36 -106 0 -20 -9 -58 -20 -85 -12 -33 -17
-61 -13 -85 4 -24 0 -44 -11 -60 -9 -14 -16 -39 -16 -56 0 -35 78 -180 98
-180 7 0 28 6 46 14 l33 14 -1 -29 c-1 -25 -5 -29 -30 -29 l-29 0 22 -24 c22
-23 23 -23 89 -9 50 10 72 20 85 38 14 19 28 25 58 25 35 0 40 -3 53 -35 15
-35 38 -45 52 -24 5 8 30 9 80 5 72 -7 74 -6 85 18 7 15 23 26 42 30 17 4 41
16 54 28 18 17 26 19 35 10 7 -7 28 -12 48 -12 29 0 39 -6 53 -29 21 -36 34
-40 112 -37 90 4 89 4 71 22 -22 22 -20 33 9 40 14 3 29 14 35 23 8 15 11 15
37 0 17 -9 27 -22 25 -32 -2 -9 1 -17 6 -17 18 0 32 26 32 59 0 24 3 31 9 22
6 -9 10 -10 16 -2 21 35 -59 56 -91 24 -16 -17 -73 -20 -84 -4 -3 4 -16 11
-29 17 -35 15 -35 60 0 85 15 11 30 32 34 48 7 33 40 51 92 51 33 0 35 2 29
26 -6 23 -5 25 16 18 28 -8 38 -22 38 -52 0 -28 20 -25 36 6 l11 22 11 -24 c6
-14 22 -26 43 -30 31 -6 32 -6 14 -26 -14 -16 -16 -23 -7 -32 7 -7 12 -22 12
-33 0 -22 34 -45 65 -45 23 0 18 26 -7 42 -20 13 -21 17 -9 32 18 22 38 20 44
-4 3 -11 14 -20 24 -20 28 0 34 -10 22 -33 -9 -16 -6 -24 14 -45 l26 -25 70
31 69 31 82 -29 c75 -28 130 -32 130 -10 0 5 -9 32 -21 62 -18 46 -31 61 -100
112 -55 40 -77 62 -70 69 17 17 189 -103 215 -150 12 -21 44 -53 71 -71 42
-28 56 -33 90 -28 64 8 119 -19 158 -79 28 -44 37 -50 70 -53 20 -2 37 -8 37
-13 0 -6 16 -17 35 -25 20 -8 33 -19 30 -25 -4 -6 3 -7 19 -3 16 4 26 2 26 -5
0 -24 17 -9 38 35 18 36 27 45 45 42 17 -2 23 -10 25 -40 3 -31 8 -38 34 -47
24 -9 34 -8 39 1 6 9 11 9 24 -2 12 -10 21 -10 41 -1 33 15 37 14 30 -5 -3 -9
3 -31 14 -49 16 -26 25 -31 45 -28 19 4 27 0 36 -21 7 -14 18 -26 26 -26 25 0
33 -43 12 -66 -17 -18 -18 -25 -8 -55 15 -44 16 -44 34 -29 8 7 25 10 39 6 19
-5 26 -1 31 14 5 16 12 19 33 14 38 -9 38 -10 15 -57 -14 -29 -18 -49 -12 -59
6 -11 2 -21 -11 -33 -27 -24 -25 -32 9 -40 37 -8 132 37 154 74 16 25 16 25
17 3 l0 -22 1708 2 1707 3 3 963 2 962 -30 0 c-28 0 -30 2 -23 28 8 26 8 96 1
137 -2 15 2 19 15 17 11 -2 24 8 35 27 9 17 20 31 25 31 4 0 57 -25 117 -55
60 -30 112 -55 114 -55 3 0 10 17 17 39 7 25 17 38 28 37 9 0 24 14 34 34 15
29 17 49 12 112 -4 60 -2 78 7 78 7 0 2 9 -11 19 l-23 18 21 41 c21 41 21 41
1 52 -11 6 -17 16 -14 25 7 18 -21 65 -39 65 -7 0 -20 19 -28 42 -15 41 -17
43 -55 40 -38 -3 -40 -1 -61 48 -14 33 -26 48 -35 45 -8 -3 -20 5 -28 20 -14
27 -20 28 -69 19 -21 -5 -31 -12 -31 -25 0 -24 -3 -24 -50 7 -30 20 -43 37
-51 68 -18 72 -23 80 -80 134 -50 47 -60 52 -101 52 -50 0 -88 29 -88 68 0 13
-12 28 -31 39 -17 10 -40 35 -50 56 -11 21 -31 43 -44 49 -16 7 -26 22 -30 47
-5 29 -15 42 -55 68 -48 32 -110 44 -110 23 0 -13 -25 -13 -71 0 -28 8 -40 18
-49 43 -18 45 -58 85 -92 92 -38 9 -62 55 -55 110 4 38 1 44 -24 59 -21 13
-32 31 -45 76 -12 44 -21 60 -34 60 -14 0 -19 12 -24 59 l-7 59 -43 12 c-36
10 -46 19 -64 56 l-22 45 35 20 c30 18 35 26 35 59 0 23 6 42 14 47 8 4 26 38
40 75 l25 68 -40 11 c-21 7 -39 13 -39 15 0 2 5 14 11 28 15 33 -4 60 -38 53
-14 -3 -23 1 -23 9 0 7 -16 18 -36 24 -19 7 -40 20 -46 30 -6 10 -18 16 -25
13 -7 -3 -13 2 -13 11 0 11 -9 16 -31 16 -25 0 -29 3 -24 19 4 13 -5 25 -36
46 -41 27 -42 27 -36 77 6 44 3 55 -26 98 -18 27 -38 49 -45 49 -7 1 -21 7
-32 13 -19 12 -19 13 6 39 25 26 25 29 11 57 l-15 30 35 4 c29 4 36 0 44 -20
5 -13 9 -32 9 -42 0 -14 10 -21 35 -26 28 -5 33 -9 25 -19 -9 -11 -5 -18 14
-30 19 -13 24 -23 20 -43 -6 -33 3 -47 35 -57 23 -7 24 -6 19 45 -4 38 -2 53
8 57 8 3 14 14 14 25 0 11 11 34 26 50 14 17 23 37 19 45 -3 9 2 17 14 20 11
3 27 16 36 29 8 13 22 24 30 24 8 0 19 17 25 39 9 34 15 40 53 49 86 21 127
24 143 12 12 -11 21 -6 53 29 38 41 60 52 62 29 0 -7 5 -3 11 9 11 22 11 22
67 -16 31 -21 61 -41 68 -44 7 -4 26 8 46 28 28 28 36 47 41 89 7 50 8 53 32
48 14 -2 37 1 50 9 21 11 27 11 33 0 5 -7 21 -11 36 -9 26 3 31 10 50 70 25
82 40 101 60 74 19 -25 45 -14 45 19 0 17 8 29 25 37 19 9 24 16 19 32 -5 16
2 13 44 -16 l50 -37 28 32 c16 18 27 39 26 48 -2 9 4 21 12 28 11 9 12 19 6
36 -8 22 -6 25 28 31 20 3 48 13 61 21 14 9 35 13 53 9 19 -4 38 0 54 11 18
12 38 14 79 10 41 -4 55 -2 59 9 3 8 11 13 18 12 8 -2 14 11 16 35 2 27 8 37
21 37 9 0 30 13 45 29 25 26 30 28 57 17 28 -10 38 -7 117 36 70 38 89 52 96
76 9 32 33 45 58 31 10 -5 34 -2 62 7 42 15 46 19 46 49 0 31 -3 34 -40 40
-33 6 -40 11 -40 30 0 18 -6 24 -27 27 -23 2 -27 7 -25 28 2 14 3 35 4 46 1
38 37 45 91 17 42 -21 50 -22 68 -10 17 12 26 12 64 -1 25 -8 45 -19 45 -24 0
-5 8 -7 18 -4 11 4 25 -1 35 -12 15 -16 15 -23 2 -67 -8 -26 -13 -51 -10 -53
3 -3 22 0 42 6 20 6 38 10 40 9 1 -2 -4 -29 -11 -61 -14 -57 -14 -57 11 -67
13 -5 33 -9 43 -9 11 0 24 -9 30 -20 8 -15 21 -20 50 -20 39 0 39 0 46 48 8
54 16 73 56 123 41 51 73 162 113 392 l35 198 -44 68 c-29 46 -41 73 -35 82 5
8 2 20 -7 31 -11 12 -14 26 -9 48 4 18 2 44 -5 60 -11 26 -26 34 -128 68 -105
35 -117 41 -128 69 -12 27 -10 34 12 67 37 54 27 104 -37 177 -35 41 -52 71
-61 108 -9 39 -17 53 -33 57 -11 3 -26 14 -33 25 -16 25 1 60 53 109 48 46 58
72 56 150 -1 38 5 84 14 109 16 48 16 49 -36 106 -26 28 -27 33 -18 73 6 29 6
49 -1 63 -8 14 -8 29 1 54 16 43 2 62 -50 71 -51 9 -81 30 -79 57 0 12 -11 52
-27 90 -33 82 -29 117 20 174 38 45 41 56 21 92 -11 20 -11 30 2 62 13 34 13
39 -4 62 -11 14 -51 44 -90 66 -50 29 -89 62 -129 109 -32 37 -74 75 -94 86
-20 10 -52 34 -72 53 -26 24 -49 36 -78 40 l-42 6 8 41 c9 52 9 90 0 141 l-8
40 100 87 99 87 12 69 c10 52 10 74 1 90 -15 28 -5 64 32 125 27 44 28 49 13
66 -9 10 -16 29 -16 43 0 49 -63 264 -97 331 -29 59 -34 78 -32 129 2 48 -1
62 -14 70 -12 6 -17 22 -17 51 0 49 -13 67 -49 67 l-24 0 21 23 c43 46 12 100
-33 57 -33 -31 -89 -26 -179 16 -105 48 -217 130 -208 152 6 16 7 16 10 1 3
-16 30 -29 63 -29 10 0 20 11 23 25 6 25 20 32 31 16 3 -5 1 -12 -5 -16 -5 -3
-10 -11 -10 -16 0 -16 54 2 82 29 25 23 32 24 107 20 l81 -5 0 28 c0 15 -7 32
-16 37 -15 8 -14 11 5 24 20 14 17 18 -89 113 -60 54 -147 120 -193 146 -69
40 -87 56 -102 89 -19 41 -23 44 -49 34 -24 -9 -19 -42 10 -71 14 -14 23 -27
21 -30 -9 -8 -43 19 -53 41 -5 11 -19 22 -30 24 -16 2 -20 8 -17 23 7 27 -7
24 -49 -11 -22 -18 -60 -35 -98 -44 -72 -17 -77 -20 -61 -40 12 -15 8 -36 -8
-36 -4 0 -19 25 -34 56 -17 35 -31 52 -39 48 -8 -5 -9 -2 -5 10 9 22 -17 32
-48 18 -19 -9 -23 -8 -19 2 3 7 -7 33 -22 59 -22 41 -30 47 -57 47 -22 0 -36
7 -45 21 -7 11 -19 18 -27 15 -9 -3 -12 0 -8 10 3 9 -2 14 -15 14 -34 0 -50
10 -45 30 3 10 -3 30 -13 45 -10 15 -17 40 -16 56 2 22 -4 32 -28 44 -17 9
-30 24 -30 34 0 11 -3 26 -6 35 -10 26 -95 -23 -116 -67 -9 -19 -30 -44 -47
-56 l-31 -22 -10 26 c-5 14 -10 31 -10 36 0 5 -4 9 -10 9 -5 0 -10 -4 -10 -9
0 -11 -35 -9 -63 4 -10 4 -16 14 -13 21 3 8 -1 14 -10 14 -11 0 -14 6 -10 16
3 9 6 18 6 20 0 2 4 4 10 4 5 0 7 -6 4 -13 -3 -8 2 -14 11 -14 9 0 14 6 11 13
-3 8 7 7 35 -4 31 -12 44 -13 62 -4 12 6 37 13 56 14 19 2 36 9 39 16 3 9 -25
12 -119 12 -155 0 -246 15 -254 41 -4 10 -9 19 -13 19 -4 0 -41 -67 -83 -148
-73 -143 -78 -149 -148 -202 -39 -30 -86 -76 -103 -102 -17 -27 -37 -48 -44
-48 -8 0 -14 -5 -14 -11 0 -6 9 -9 20 -6 13 3 20 0 20 -8 0 -8 -9 -17 -20 -20
-23 -7 -27 -44 -9 -77 9 -16 8 -19 -3 -16 -9 3 -14 26 -16 72 l-3 67 -37 -7
c-20 -4 -73 -20 -117 -35 -71 -26 -87 -28 -157 -23 l-77 7 -75 -68 c-42 -37
-76 -74 -76 -81 0 -24 15 -15 48 27 23 31 33 38 37 27 8 -20 -48 -114 -66
-111 -14 2 -49 -56 -49 -82 0 -8 -5 -15 -11 -15 -7 0 -9 -9 -5 -24 5 -19 -8
-79 -20 -94 -5 -7 -44 33 -44 45 0 7 -9 13 -21 13 -11 0 -29 10 -38 21 l-17
22 -21 -27 c-12 -14 -26 -26 -32 -26 -17 0 -32 38 -25 65 5 21 3 25 -15 25
-11 0 -28 11 -36 24 -15 22 -21 24 -78 19 -48 -5 -77 -14 -128 -44 -75 -45
-91 -47 -104 -17 -7 16 -22 25 -48 29 -46 7 -43 5 -58 60 -11 42 -11 49 11 83
16 27 26 34 33 27 24 -24 59 -11 100 35 22 25 66 63 98 84 32 22 60 44 63 49
3 5 -1 60 -9 122 -17 128 -17 135 -8 126 3 -4 17 9 31 29 13 19 21 38 17 42
-3 4 -27 -5 -52 -18 -33 -18 -48 -21 -51 -12 -2 7 -20 12 -41 12 -30 0 -48 -9
-87 -42 -27 -23 -57 -48 -66 -56 -9 -7 -33 -18 -54 -22 -35 -8 -40 -6 -94 40
-38 34 -97 68 -185 108 l-130 59 -50 -19 c-27 -11 -51 -23 -53 -26 -1 -4 -13
-29 -25 -57 -23 -48 -24 -49 -36 -27 -10 20 -9 25 9 40 18 15 19 22 10 51 -8
28 -6 38 6 52 13 15 12 19 -17 43 -17 15 -39 24 -48 22 -9 -3 -65 -17 -126
-30 -100 -23 -111 -24 -127 -9 -23 21 -17 28 36 42 47 12 99 49 118 85 6 11
14 71 18 131 7 106 6 111 -17 143 -13 17 -31 55 -39 82 -23 78 -62 89 -80 22
-4 -15 -12 -21 -21 -18 -8 3 -18 6 -22 6 -4 0 -25 24 -47 54 -34 47 -48 58
-104 79 -36 14 -64 30 -62 36 1 6 3 16 5 23 5 28 -38 17 -91 -23 -54 -41 -71
-46 -118 -35 -17 5 -24 -1 -34 -24 -13 -31 -25 -35 -79 -24 -23 5 -31 12 -31
28 0 12 -6 29 -12 38 -14 18 -111 48 -155 48 -15 0 -47 11 -71 25 -54 31 -144
42 -210 25 -43 -11 -52 -11 -73 3 -29 21 -59 22 -59 2z m3850 -820 c0 -6 -16
-19 -35 -28 -19 -9 -35 -22 -35 -28 0 -8 -7 -6 -18 4 -22 20 -32 13 -32 -20 0
-18 -8 -27 -30 -34 -21 -8 -30 -18 -30 -33 0 -14 -11 -28 -30 -39 -34 -20 -38
-43 -12 -63 16 -13 16 -13 -3 -13 -50 0 -82 73 -48 111 8 9 12 22 8 27 -3 6 1
11 9 11 9 0 16 12 18 33 2 23 8 33 23 34 126 12 135 14 135 34 0 10 7 19 15
19 9 0 18 7 22 15 5 14 8 14 24 -1 11 -9 19 -22 19 -29z m1290 -542 c11 -32
19 -42 31 -38 19 6 29 -19 29 -78 0 -27 -4 -37 -12 -34 -7 2 -12 10 -10 16 4
21 -39 11 -48 -11 -7 -19 -9 -16 -9 20 -1 40 -2 42 -31 42 -37 0 -39 -23 -10
-89 16 -35 18 -47 8 -60 -21 -28 -41 -41 -62 -41 -18 0 -15 5 17 37 l37 38
-87 87 c-84 85 -87 88 -69 105 17 17 18 17 12 -4 -11 -34 13 -38 44 -8 37 35
65 29 50 -11 -6 -15 -9 -29 -6 -31 9 -9 46 57 46 82 0 23 4 26 28 23 22 -2 30
-11 42 -45z"/>
<path d="M2868 12303 c-49 -4 -78 -28 -78 -64 0 -18 57 -45 113 -53 34 -4 40
-2 56 25 23 37 16 73 -15 88 -14 6 -26 10 -27 9 -1 -1 -23 -3 -49 -5z"/>
<path d="M2711 12199 l-24 -32 22 -43 c23 -48 28 -51 56 -30 19 13 19 14 0 42
-10 16 -21 44 -24 62 l-6 34 -24 -33z"/>
<path d="M7465 12194 c-71 -29 -85 -45 -85 -95 0 -20 -7 -42 -15 -49 -8 -7
-15 -17 -15 -23 0 -5 9 -2 20 8 12 11 20 31 20 51 0 22 7 38 22 48 12 9 23 14
24 13 1 -1 -3 -32 -10 -70 -7 -37 -11 -67 -8 -67 18 0 82 48 92 69 l12 26 13
-31 c14 -35 78 -79 100 -70 19 7 35 -23 35 -66 0 -39 -15 -58 -45 -58 -28 0
-47 23 -69 83 -15 39 -20 46 -32 36 -20 -16 -28 -5 -14 20 6 12 7 21 2 21 -17
0 -47 -42 -44 -62 3 -19 2 -18 -18 2 -19 19 -28 21 -73 15 -29 -4 -54 -9 -55
-10 -2 -2 2 -16 10 -32 11 -22 19 -27 41 -25 21 3 27 -1 27 -16 0 -11 7 -23
16 -26 15 -6 14 -10 -6 -31 -13 -14 -33 -25 -46 -25 -19 0 -34 -17 -34 -37 0
-3 13 -3 29 0 25 5 30 2 42 -26 7 -18 18 -35 23 -39 22 -15 -14 -32 -63 -29
-48 2 -49 2 -56 -30 -7 -29 -3 -36 26 -61 19 -16 28 -27 20 -26 -8 2 -17 -5
-19 -15 -3 -16 -1 -17 16 -8 27 15 32 14 32 -5 0 -10 6 -14 14 -11 8 3 22 -3
32 -14 22 -24 71 -25 77 -1 4 13 5 11 6 -5 0 -13 -5 -23 -11 -24 -7 0 7 -9 31
-20 45 -20 71 -14 71 18 0 15 -38 33 -57 26 -7 -3 -13 0 -13 6 0 6 10 13 23
16 12 3 35 26 50 50 23 35 39 48 83 65 66 24 63 24 86 3 17 -15 19 -15 36 0
21 19 32 22 32 7 0 -5 -12 -16 -27 -24 -32 -18 -17 -21 24 -5 l28 10 -23 -23
c-29 -31 -28 -35 8 -40 25 -4 30 -1 30 16 0 11 10 30 22 43 l22 23 -49 50
c-36 36 -57 50 -77 50 -22 0 -32 8 -48 40 -29 57 -25 74 24 116 54 45 66 95
30 123 -20 16 -32 16 -120 6 l-97 -11 -28 44 -28 45 20 28 c11 16 25 32 31 35
8 5 5 10 -8 15 -30 12 -45 10 -109 -17z"/>
<path d="M2975 12131 c-30 -11 -51 -25 -53 -35 -3 -15 1 -15 50 4 29 11 54 20
54 20 1 0 4 7 8 15 7 18 4 18 -59 -4z"/>
<path d="M7282 12067 c-13 -15 -37 -156 -28 -164 3 -4 6 1 6 11 0 9 7 28 16
41 10 16 14 37 11 57 -3 22 1 39 11 51 8 9 10 17 5 17 -6 0 -15 -6 -21 -13z"/>
<path d="M3010 11955 c-39 -11 -45 -15 -42 -36 4 -34 25 -52 51 -44 21 6 29
19 45 73 8 24 9 24 -54 7z"/>
<path d="M5306 11889 c-10 -18 -22 -48 -27 -67 -10 -46 3 -65 37 -51 39 14 44
11 44 -25 l0 -35 103 2 103 2 -37 80 c-36 77 -39 81 -86 96 -26 9 -64 19 -83
23 -32 5 -37 3 -54 -25z"/>
<path d="M3192 11894 c-12 -8 -22 -25 -22 -38 0 -17 8 -24 40 -32 44 -12 60
-3 79 48 8 21 7 28 -5 32 -28 11 -69 6 -92 -10z"/>
<path d="M7317 11855 c-9 -20 -17 -37 -17 -39 0 -2 22 8 50 23 55 29 59 44 14
49 -26 3 -32 -2 -47 -33z"/>
<path d="M7241 11864 c0 -11 3 -14 6 -6 3 7 2 16 -1 19 -3 4 -6 -2 -5 -13z"/>
<path d="M2272 11391 c-11 -7 -11 -9 1 -14 16 -6 27 0 27 15 0 10 -11 10 -28
-1z"/>
<path d="M3025 11161 c-3 -5 -1 -12 5 -16 5 -3 10 1 10 9 0 18 -6 21 -15 7z"/>
<path d="M5688 11064 c-37 -19 -48 -30 -48 -48 0 -33 45 -43 55 -12 7 20 7 20
14 -4 6 -22 8 -20 25 24 10 27 14 51 10 56 -5 5 -30 -3 -56 -16z"/>
<path d="M2215 10741 c-3 -5 -1 -12 5 -16 5 -3 10 -1 10 5 0 6 11 8 28 4 21
-4 24 -3 12 5 -19 13 -47 14 -55 2z"/>
<path d="M2046 10714 c-9 -24 -7 -29 6 -16 7 7 37 12 68 12 39 0 51 3 40 10
-25 16 -107 12 -114 -6z"/>
<path d="M2360 10690 c6 -11 12 -20 14 -20 2 0 2 9 -1 20 -3 11 -9 20 -15 20
-5 0 -4 -9 2 -20z"/>
<path d="M1840 10685 c-21 -25 4 -44 28 -22 11 10 35 17 62 17 57 0 48 6 -21
14 -45 6 -58 4 -69 -9z"/>
<path d="M1751 10661 c-9 -6 -5 -10 14 -15 33 -9 44 -1 18 12 -11 6 -25 7 -32
3z"/>
<path d="M1535 10640 c-10 -11 -13 -20 -7 -20 33 0 152 25 152 32 0 4 -29 8
-63 8 -51 0 -68 -4 -82 -20z"/>
<path d="M1285 10590 c-22 -6 -8 -8 50 -9 44 0 87 4 95 9 18 12 -99 12 -145 0z"/>
<path d="M1251 10550 c-13 -7 -13 -11 -1 -25 12 -15 14 -15 23 0 11 21 -3 37
-22 25z"/>
<path d="M1080 10492 c-19 -9 -37 -17 -39 -19 -10 -7 32 -54 47 -51 9 1 23 -1
30 -5 6 -5 12 -4 12 2 0 5 -8 14 -17 20 -20 11 -16 13 41 26 l30 6 -30 20
c-34 22 -30 22 -74 1z"/>
<path d="M87 3695 c-16 -8 -22 -20 -22 -44 0 -29 7 -39 45 -66 49 -34 62 -68
33 -83 -23 -12 -57 0 -77 30 l-16 22 0 -24 c0 -38 11 -46 61 -45 56 1 79 17
79 56 0 23 -10 36 -50 65 -51 36 -65 69 -34 81 21 8 64 -13 64 -32 0 -8 5 -15
11 -15 6 0 8 7 5 16 -3 9 -6 22 -6 29 0 17 -65 24 -93 10z"/>
<path d="M252 3624 c-25 -17 -29 -34 -7 -34 8 0 15 6 15 14 0 19 25 27 39 13
19 -19 12 -31 -27 -52 -40 -22 -53 -54 -28 -74 11 -9 20 -10 36 -1 16 9 25 8
36 -1 12 -10 18 -9 32 5 14 14 14 17 2 14 -12 -2 -16 10 -18 55 -3 51 -6 59
-28 67 -31 12 -25 13 -52 -6z m58 -79 c0 -24 -31 -51 -44 -38 -12 12 -6 42 12
52 26 16 32 13 32 -14z"/>
<path d="M403 3630 c-23 -9 -32 -40 -13 -40 6 0 10 6 10 14 0 16 19 25 38 19
24 -9 11 -38 -25 -58 -42 -22 -54 -52 -28 -71 12 -9 24 -10 43 -3 17 7 27 6
32 -1 8 -12 40 -3 40 12 0 5 -4 6 -10 3 -6 -4 -10 13 -10 44 0 38 -5 56 -20
71 -22 22 -25 23 -57 10z m47 -89 c0 -17 -6 -31 -16 -35 -34 -13 -48 26 -16
50 26 20 32 17 32 -15z"/>
</g>
</svg>
