<?xml version="1.0" standalone="no"?>
<!DOCTYPE svg PUBLIC "-//W3C//DTD SVG 20010904//EN"
 "http://www.w3.org/TR/2001/REC-SVG-20010904/DTD/svg10.dtd">
<svg version="1.0" xmlns="http://www.w3.org/2000/svg"
 width="1280.000000pt" height="1280.000000pt" viewBox="0 0 1280.000000 1280.000000"
 preserveAspectRatio="xMidYMid meet">
<metadata>
Created by potrace 1.15, written by Peter Selinger 2001-2017
</metadata>
<g transform="translate(0.000000,1280.000000) scale(0.100000,-0.100000)"
fill="#000000" stroke="none">
<path d="M8098 11908 c-63 -36 -69 -73 -27 -166 33 -72 78 -70 126 5 56 87 55
145 -3 169 -44 18 -52 18 -96 -8z"/>
<path d="M7809 11746 c-2 -3 -63 -7 -134 -10 -130 -5 -265 -18 -340 -33 -33
-7 -46 -17 -73 -57 -29 -44 -32 -54 -26 -95 12 -80 43 -121 93 -121 11 0 28
12 38 26 44 64 55 70 136 77 82 7 115 19 167 64 26 21 48 29 102 35 84 9 118
28 118 66 0 16 -5 33 -12 40 -11 11 -60 17 -69 8z"/>
<path d="M6084 11540 c-64 -55 -77 -80 -63 -117 34 -90 157 -140 233 -94 17
10 42 22 56 26 14 4 30 11 36 16 6 5 61 12 122 14 91 4 127 11 192 35 86 32
129 37 162 19 28 -15 61 -4 103 32 38 34 45 68 18 90 -22 19 -217 15 -311 -6
-55 -13 -82 -14 -125 -6 -30 5 -79 7 -109 4 -31 -3 -78 -1 -104 5 -27 6 -74
14 -105 18 -55 6 -57 5 -105 -36z"/>
<path d="M8735 11508 c-11 -7 -51 -15 -90 -19 -62 -7 -292 -66 -459 -118 -42
-13 -68 -16 -89 -10 -17 5 -42 6 -56 2 -40 -10 -245 -93 -256 -104 -17 -17
-32 -9 -38 20 -7 33 -52 57 -89 46 -76 -23 -168 -69 -173 -86 -6 -18 -8 -18
-28 -4 -12 8 -31 15 -44 15 -12 0 -39 11 -59 25 -43 29 -46 30 -121 10 -32 -9
-116 -20 -188 -25 -206 -15 -385 -77 -487 -169 -50 -46 -66 -54 -155 -77 -54
-14 -129 -41 -168 -59 -38 -18 -93 -38 -122 -45 -58 -13 -101 -52 -195 -174
-38 -50 -78 -86 -143 -130 l-90 -61 -54 -125 c-29 -69 -63 -154 -75 -190 l-21
-65 -60 -6 c-70 -6 -112 -24 -121 -52 -10 -32 6 -128 30 -183 13 -27 43 -73
68 -101 l45 -50 8 -164 c12 -267 16 -242 -49 -308 -63 -64 -80 -105 -67 -163
13 -55 34 -83 102 -133 66 -49 107 -60 178 -52 37 4 65 -1 132 -25 157 -56
152 -56 215 -13 49 34 58 37 87 28 43 -13 40 -36 -20 -138 -93 -158 -85 -125
-79 -355 7 -251 12 -280 60 -329 l37 -38 -53 -40 c-29 -22 -104 -64 -165 -93
-104 -49 -114 -56 -134 -96 -12 -26 -37 -55 -62 -72 -23 -15 -61 -53 -85 -84
-31 -41 -72 -77 -145 -125 -56 -37 -155 -109 -219 -160 -68 -54 -151 -110
-200 -133 -111 -55 -143 -78 -168 -122 -21 -37 -20 -78 1 -78 10 0 12 -43 3
-76 -6 -24 -19 -22 -119 19 -27 11 -69 22 -92 24 -57 7 -61 27 -12 55 58 33
74 67 58 128 -15 60 -6 96 58 228 29 60 46 112 50 147 5 50 3 59 -35 122 -22
37 -59 123 -82 190 -37 111 -40 127 -30 163 9 35 14 40 39 40 16 0 67 -20 115
-44 96 -49 111 -49 158 -3 25 26 40 32 88 35 l58 4 72 90 c93 116 105 138 125
231 16 73 16 81 1 120 -18 46 -52 89 -84 106 -29 15 -148 -2 -192 -28 l-36
-21 -52 60 c-35 39 -59 79 -71 116 -17 51 -18 60 -4 92 24 57 9 117 -67 265
-37 72 -75 154 -85 180 -10 26 -26 52 -37 58 -11 6 -54 7 -108 3 -100 -8 -132
-26 -144 -84 -3 -17 -17 -55 -32 -85 -40 -87 -70 -76 -204 75 -50 56 -64 81
-79 136 -11 36 -25 70 -33 75 -7 5 -40 9 -74 9 -45 0 -65 -4 -77 -17 -43 -48
-92 -225 -127 -462 -16 -105 -33 -177 -66 -270 -66 -188 -101 -336 -119 -516
-43 -424 -73 -620 -115 -757 -110 -361 -239 -684 -321 -805 -18 -27 -56 -74
-85 -106 -54 -58 -72 -103 -60 -150 10 -41 -73 -173 -214 -342 -111 -133 -131
-153 -166 -170 -20 -9 -52 -32 -73 -50 -20 -18 -50 -40 -68 -48 -90 -47 -101
-206 -20 -294 24 -27 17 -29 -24 -8 -22 12 -34 13 -50 4 -11 -6 -22 -9 -23 -7
-1 2 -12 23 -24 48 -32 65 -76 122 -100 131 -21 8 -112 4 -144 -7 -26 -8 -54
-52 -72 -113 -23 -80 -21 -120 13 -173 39 -61 64 -83 112 -97 38 -12 40 -14
25 -30 -31 -34 -21 -64 58 -176 20 -27 20 -28 0 -42 -20 -14 -23 -14 -87 10
-36 13 -48 11 -205 -29 -187 -49 -198 -55 -227 -144 -24 -73 -11 -89 92 -114
l79 -18 89 30 c49 17 92 29 97 26 4 -3 8 -21 8 -40 0 -23 16 -63 46 -117 84
-149 106 -169 211 -188 32 -6 74 -19 94 -30 38 -19 129 -104 129 -120 0 -18
65 -49 105 -50 22 0 49 -4 60 -8 16 -7 12 -10 -22 -15 -32 -6 -58 -2 -103 13
-33 12 -69 21 -79 21 -11 0 -55 26 -98 58 -43 32 -103 69 -133 81 -67 28 -111
68 -151 139 -33 58 -72 87 -133 98 -22 3 -66 15 -98 25 -53 18 -63 18 -150 4
-51 -8 -147 -17 -212 -21 -119 -7 -120 -7 -158 -42 -101 -91 -125 -218 -49
-256 92 -47 210 -45 279 5 68 49 81 42 180 -91 46 -63 49 -65 89 -62 36 2 44
-2 66 -32 28 -35 104 -86 132 -86 13 0 13 -4 -5 -27 -27 -37 -17 -69 29 -93
60 -30 129 -93 165 -150 34 -54 34 -54 113 -71 66 -14 84 -15 116 -4 40 14 41
13 51 -28 8 -33 56 -58 96 -51 21 4 29 -2 53 -44 15 -28 27 -55 27 -61 0 -19
-60 -42 -162 -60 l-101 -19 -61 47 c-54 42 -64 56 -89 122 -45 116 -71 135
-204 149 -62 7 -92 14 -107 28 -30 27 -61 42 -89 42 -33 0 -38 9 -20 36 29 44
-4 162 -58 213 -28 26 -115 37 -177 22 -26 -7 -81 -25 -123 -41 -72 -28 -86
-29 -285 -36 -294 -9 -311 -14 -437 -144 -116 -118 -120 -132 -54 -211 23 -29
65 -67 92 -85 66 -43 80 -57 129 -134 54 -85 87 -98 191 -76 38 8 93 17 121
20 l52 5 47 -59 c28 -35 65 -68 89 -80 22 -11 62 -37 89 -59 61 -50 117 -63
223 -51 127 14 159 34 136 85 -9 19 -5 38 20 103 29 77 32 80 66 87 29 5 39 3
47 -10 28 -48 56 -67 209 -144 l167 -85 45 12 c24 7 72 12 107 12 l62 0 -45
-26 c-25 -14 -48 -31 -52 -37 -4 -7 -13 -21 -21 -31 -14 -19 -15 -19 -43 3
-25 20 -39 23 -104 21 -41 -2 -81 -2 -88 -1 -7 0 -43 30 -81 65 -62 58 -72 64
-125 70 -67 9 -77 3 -111 -65 -56 -109 -154 -156 -342 -165 -119 -6 -120 -5
-316 154 -55 45 -96 61 -202 77 -49 7 -115 23 -145 35 -110 44 -240 5 -328
-98 -26 -31 -58 -71 -70 -89 -12 -17 -32 -33 -45 -35 -39 -5 -34 -50 11 -100
34 -37 38 -46 30 -68 -15 -38 -3 -174 19 -212 45 -80 254 -137 328 -90 17 11
60 61 95 113 35 52 69 97 74 101 14 9 36 4 106 -27 96 -41 380 -125 423 -125
18 0 19 -5 13 -64 -12 -110 25 -161 140 -191 94 -24 124 -20 193 26 34 22 74
60 90 82 49 72 60 78 175 92 122 15 166 35 182 85 6 18 20 41 31 49 10 9 38
43 60 77 39 58 77 85 113 82 51 -4 66 12 85 97 11 48 13 50 51 57 66 12 167 9
218 -7 69 -21 158 -20 185 3 21 16 22 21 11 87 -6 39 -22 108 -36 155 -13 46
-24 94 -24 106 0 13 18 38 45 63 39 36 50 41 92 41 27 0 66 5 88 10 22 5 41 7
44 4 3 -2 -8 -30 -23 -62 -16 -32 -26 -67 -25 -77 3 -11 28 -32 59 -48 46 -24
62 -28 102 -23 42 6 57 2 127 -34 92 -46 115 -48 196 -20 72 25 107 25 203 1
135 -34 352 -72 365 -64 30 18 180 190 199 227 33 66 70 116 83 116 16 0 38
-89 37 -147 0 -23 -8 -63 -17 -88 l-18 -45 40 -58 c34 -47 43 -71 53 -137 15
-98 40 -155 79 -178 45 -26 76 -21 121 19 l39 36 31 -68 c34 -76 36 -93 15
-134 -8 -16 -12 -36 -9 -44 7 -19 58 -34 144 -42 76 -7 116 6 173 56 36 31 38
32 63 15 14 -9 50 -19 79 -22 72 -8 130 21 197 98 50 56 53 58 71 41 11 -9 28
-34 39 -55 17 -34 18 -46 9 -111 -11 -79 -2 -134 25 -157 9 -7 48 -14 90 -15
72 -3 75 -4 133 -52 l58 -49 107 -6 c59 -4 115 -11 125 -17 11 -5 31 -43 46
-84 28 -76 45 -93 79 -80 9 3 23 18 31 33 28 51 15 0 -15 -59 -22 -44 -30 -73
-30 -114 0 -49 -3 -57 -40 -94 -35 -34 -40 -46 -40 -84 0 -25 -3 -79 -6 -121
-7 -76 -7 -77 -40 -87 -45 -15 -70 -50 -79 -107 -8 -54 -20 -73 -45 -73 -40 0
-101 -60 -137 -136 l-36 -75 6 -122 c3 -67 10 -135 17 -152 16 -42 57 -83 91
-90 16 -4 29 -8 29 -9 0 -1 -9 -27 -20 -59 -34 -95 -25 -169 22 -193 26 -14
35 -13 83 1 67 19 108 53 129 106 l17 42 16 -23 c30 -42 78 -79 103 -80 14 0
40 9 58 20 33 20 33 20 58 1 48 -38 88 -45 136 -23 37 16 48 17 73 7 63 -26
190 -62 202 -58 34 13 19 114 -38 249 -22 50 -39 96 -39 102 0 20 64 85 118
119 56 36 77 71 67 113 -12 47 -75 139 -112 161 l-35 22 7 61 c15 128 12 136
-62 143 -26 3 -55 11 -63 18 -25 21 -101 37 -145 31 l-42 -7 -28 115 c-25 98
-27 118 -16 142 l12 28 54 -57 c38 -40 64 -58 89 -62 34 -7 39 -4 161 111 68
64 131 126 138 137 7 10 68 58 137 105 111 78 125 91 128 119 3 27 -2 34 -27
47 -16 9 -36 16 -44 16 -8 0 -22 9 -33 21 -10 12 -36 30 -56 40 -36 19 -38 22
-38 70 0 63 9 82 75 146 46 44 57 62 75 125 18 59 36 90 91 160 103 128 104
131 104 343 0 195 -7 306 -23 345 -13 34 -99 147 -116 153 -8 3 -30 39 -49 79
-19 40 -51 100 -71 132 -41 67 -43 83 -20 143 24 61 12 102 -44 164 -37 40
-55 52 -82 54 -19 1 -35 6 -36 11 -24 93 -38 126 -75 167 -32 37 -47 47 -72
47 -31 1 -31 1 -12 16 29 22 26 106 -5 157 l-22 38 27 74 c15 41 29 75 32 75
3 0 18 -11 35 -25 28 -24 36 -25 158 -25 102 0 130 3 140 15 20 24 7 126 -24
181 -25 45 -27 84 -4 84 6 0 43 -33 82 -72 67 -69 73 -73 116 -73 25 0 55 2
68 5 20 4 26 -2 45 -50 37 -93 94 -96 182 -10 27 27 50 40 68 40 15 0 36 5 46
12 15 9 32 4 99 -35 45 -26 87 -47 94 -47 17 0 121 63 172 105 49 39 127 79
257 130 l96 37 68 -36 c37 -20 78 -36 90 -36 26 0 50 25 59 63 4 16 41 61 91
110 77 74 85 86 81 112 -3 17 -8 60 -11 96 -6 62 -9 69 -53 114 -26 27 -71 59
-102 72 -51 23 -130 87 -130 105 0 5 22 22 49 38 50 31 65 56 75 124 6 43 31
68 61 61 45 -12 115 -17 148 -11 27 5 38 14 48 39 23 54 78 106 176 163 69 41
94 61 98 80 3 13 7 35 10 49 7 33 42 54 106 64 62 10 89 36 89 86 0 48 -26
167 -46 208 -16 34 -16 36 4 69 23 37 50 139 59 224 5 53 -12 102 -62 169 -12
17 -28 46 -34 66 -27 84 -71 175 -93 192 -33 25 -54 13 -84 -44 l-24 -49 -74
0 c-82 0 -106 6 -106 25 0 43 -69 56 -181 35 -79 -15 -150 2 -188 45 -41 48
-45 68 -21 114 24 48 25 69 4 99 -19 27 -21 23 36 52 50 25 80 48 80 62 0 5
-25 36 -57 69 l-56 59 2 68 c1 37 7 72 11 78 6 6 33 9 68 6 43 -3 89 3 166 23
100 25 108 26 129 11 12 -9 37 -28 56 -41 42 -31 83 -32 123 -4 l30 22 46 -21
c26 -12 57 -24 69 -27 31 -8 91 20 102 47 16 43 40 222 46 343 4 66 10 154 15
195 5 41 12 118 15 172 7 94 8 97 48 147 45 53 122 182 207 346 l52 100 -6
111 c-6 85 -3 132 10 200 20 107 15 256 -10 324 -10 25 -24 69 -32 97 -14 52
-14 53 16 106 26 46 30 64 30 128 0 43 -9 108 -21 154 -14 52 -21 110 -21 168
0 87 -1 88 -29 103 -36 18 -189 38 -242 31 -25 -3 -68 3 -120 18 -45 13 -94
26 -108 29 -14 3 -46 23 -70 44 -24 22 -62 48 -85 60 -65 33 -78 75 -70 222 6
106 5 124 -12 164 -26 58 -93 100 -161 98 -25 0 -80 8 -123 19 -87 22 -124 23
-153 7z m-5769 -7213 c-11 -8 -27 -15 -35 -15 -10 1 -7 6 9 15 33 19 50 18 26
0z m-544 -157 c-21 -8 -95 -10 -116 -2 -10 4 1 14 37 33 l52 28 22 -26 c19
-23 20 -27 5 -33z m-202 -12 c0 -2 -7 -7 -16 -10 -8 -3 -12 -2 -9 4 6 10 25
14 25 6z"/>
<path d="M5700 11461 c-30 -10 -73 -22 -95 -26 -22 -4 -95 -29 -162 -56 -84
-34 -145 -52 -195 -58 -116 -13 -185 -39 -243 -93 -106 -97 -122 -179 -40
-206 56 -19 102 -9 144 32 26 25 48 36 81 40 25 3 50 7 55 8 6 1 22 -2 37 -5
22 -6 34 -1 61 23 19 16 45 30 57 30 12 0 45 18 72 40 l50 39 76 -5 c67 -5 82
-3 110 16 18 11 41 34 50 50 16 27 43 40 95 45 10 1 36 19 57 40 70 68 49 97
-73 102 -62 3 -96 -1 -137 -16z"/>
<path d="M4686 10928 c-72 -27 -179 -100 -266 -181 -43 -40 -114 -103 -158
-141 -45 -38 -84 -77 -88 -88 -4 -13 2 -28 18 -45 19 -21 30 -24 66 -20 24 2
51 11 60 20 9 8 42 19 72 24 50 7 56 11 72 44 10 23 28 41 45 47 55 20 79 56
75 113 -1 15 8 20 115 51 18 5 43 22 56 37 13 16 33 33 44 39 46 25 31 88 -27
107 -29 10 -43 8 -84 -7z"/>
<path d="M4191 10399 c-20 -23 -57 -65 -82 -93 -146 -163 -269 -398 -269 -516
0 -27 7 -70 15 -95 20 -58 13 -69 -38 -61 -51 8 -83 -11 -96 -60 -14 -52 0
-81 46 -93 21 -6 44 -11 52 -11 8 0 44 31 80 68 51 53 75 71 104 76 70 13 131
52 166 106 18 27 37 50 42 50 5 0 30 19 55 42 56 52 109 153 118 228 26 199
26 204 -16 248 -19 20 -43 56 -53 80 -19 44 -48 72 -74 72 -8 0 -31 -19 -50
-41z"/>
</g>
</svg>
