<?xml version="1.0" standalone="no"?>
<!DOCTYPE svg PUBLIC "-//W3C//DTD SVG 20010904//EN"
 "http://www.w3.org/TR/2001/REC-SVG-20010904/DTD/svg10.dtd">
<svg version="1.0" xmlns="http://www.w3.org/2000/svg"
 width="1280.000000pt" height="1046.000000pt" viewBox="0 0 1280.000000 1046.000000"
 preserveAspectRatio="xMidYMid meet">
<metadata>
Created by potrace 1.15, written by Peter Selinger 2001-2017
</metadata>
<g transform="translate(0.000000,1046.000000) scale(0.100000,-0.100000)"
fill="#000000" stroke="none">
<path d="M7352 10443 c-18 -8 -35 -26 -38 -39 -3 -13 -15 -26 -25 -29 -10 -4
-38 -28 -60 -55 -23 -27 -49 -52 -58 -55 -9 -3 -25 -24 -36 -47 -19 -40 -30
-50 -67 -62 -14 -4 -18 -16 -18 -56 l0 -50 -37 -2 c-62 -3 -74 -2 -153 15
-103 23 -134 21 -191 -10 -62 -35 -70 -27 -71 68 -1 63 3 82 26 128 29 56 29
55 -17 82 -12 7 -47 7 -110 0 -86 -10 -102 -15 -245 -88 l-153 -77 25 -19 c30
-22 32 -42 9 -107 -17 -47 -17 -47 10 -91 15 -24 47 -73 72 -108 25 -35 45
-72 45 -82 0 -13 -21 -29 -72 -55 -66 -33 -77 -36 -127 -30 -69 8 -95 25 -107
68 l-10 33 -157 3 -157 3 0 -33 c0 -25 10 -41 50 -78 28 -25 50 -52 50 -59 0
-7 9 -24 20 -38 15 -20 20 -41 20 -93 0 -74 4 -80 87 -133 26 -16 49 -41 57
-62 16 -37 25 -42 43 -24 8 8 -3 38 -42 113 -86 163 -144 326 -116 326 6 0 18
-26 26 -57 33 -116 27 -108 81 -111 69 -4 81 -22 15 -22 -50 0 -52 -1 -46 -22
4 -13 30 -65 57 -115 52 -97 54 -99 133 -106 35 -3 33 -4 -12 -5 -29 -1 -53
-5 -53 -8 0 -3 11 -15 26 -26 35 -28 22 -35 -14 -8 -41 30 -59 18 -32 -21 18
-24 29 -29 68 -31 44 -1 44 -2 10 -5 -48 -5 -50 -23 -2 -23 19 0 33 -4 30 -8
-3 -5 -19 -7 -36 -4 -18 2 -30 0 -30 -7 0 -11 22 -18 80 -24 19 -3 6 -4 -30
-3 -64 1 -65 1 -68 31 -2 16 -13 42 -24 58 -21 29 -21 29 -33 8 -12 -23 -27
-19 -18 5 7 18 -5 64 -16 64 -11 0 -61 -76 -61 -94 0 -8 17 -20 38 -26 20 -7
57 -28 81 -46 38 -29 52 -34 100 -34 31 0 63 -5 71 -11 11 -8 -6 -9 -61 -6
-56 3 -86 10 -110 25 -19 12 -57 32 -85 46 -29 13 -56 32 -62 41 -8 15 -21 17
-81 13 -63 -3 -71 -2 -71 14 0 28 -18 21 -42 -17 -13 -19 -26 -35 -30 -35 -11
0 -10 5 9 44 13 29 14 38 3 51 -19 23 -37 18 -66 -20 -15 -20 -29 -33 -31 -31
-6 5 114 183 129 192 25 16 16 -10 -18 -51 l-38 -47 25 -19 c27 -21 45 -24 54
-9 9 15 25 2 19 -15 -8 -21 28 -35 89 -35 l54 0 26 50 c15 28 24 57 21 64 -3
8 -32 25 -64 39 -72 32 -88 55 -98 141 -8 59 -13 71 -47 106 -22 22 -43 40
-47 40 -4 0 -59 -65 -122 -144 -110 -138 -119 -147 -252 -240 -253 -176 -234
-166 -306 -162 -60 4 -65 3 -113 -34 -27 -20 -74 -61 -103 -89 -29 -28 -57
-51 -62 -51 -5 0 -22 8 -40 18 l-31 17 -37 -43 c-39 -45 -65 -52 -98 -28 -18
14 -18 15 -1 45 25 42 2 51 -46 18 -40 -27 -134 -41 -174 -26 -13 5 -38 9 -54
9 -41 0 -52 34 -46 140 4 80 3 86 -19 103 -15 11 -32 15 -53 11 -27 -6 -31 -4
-31 14 0 30 -29 42 -103 42 -67 0 -129 24 -205 79 -24 17 -41 22 -62 18 -20
-5 -48 4 -101 30 -80 39 -101 37 -107 -11 -4 -30 -18 -33 -51 -9 -22 15 -25
15 -36 -1 -8 -10 -19 -14 -30 -10 -11 5 -21 1 -27 -10 -7 -13 -17 -16 -34 -12
-35 9 -38 -9 -22 -114 l15 -92 -26 -9 c-31 -12 -247 -16 -278 -6 -12 4 -31 23
-42 42 -11 19 -27 35 -35 35 -30 0 -77 54 -115 132 -32 64 -38 84 -29 98 9 14
7 23 -10 45 -12 15 -18 33 -14 39 4 6 20 31 36 55 28 39 29 45 17 74 -7 18
-17 50 -21 72 -13 70 -24 86 -45 66 -6 -5 -48 -19 -95 -31 -47 -12 -121 -37
-165 -57 -44 -19 -98 -35 -120 -36 -37 -2 -40 0 -51 32 -6 18 -19 38 -28 43
-27 15 -30 2 -7 -24 32 -33 24 -67 -19 -83 -19 -7 -43 -16 -52 -20 -26 -11
-23 23 4 52 19 20 19 23 4 23 -9 0 -26 -5 -38 -11 -29 -15 -33 -4 -8 21 27 27
19 37 -16 21 -25 -11 -26 -14 -20 -70 7 -63 -3 -81 -54 -96 -14 -4 -81 -32
-149 -62 -110 -48 -142 -68 -260 -164 -75 -60 -172 -128 -216 -150 -86 -45
-294 -183 -465 -309 -58 -43 -143 -97 -190 -120 -47 -23 -120 -67 -163 -98
-44 -30 -140 -85 -215 -123 -76 -38 -166 -86 -202 -108 -36 -22 -89 -54 -117
-71 -29 -17 -53 -37 -53 -44 0 -8 9 -33 20 -58 10 -24 26 -85 34 -134 9 -49
19 -105 24 -124 5 -19 7 -51 4 -71 -5 -44 34 -95 81 -107 28 -7 33 -13 38 -53
4 -24 21 -70 38 -103 35 -65 38 -88 16 -106 -8 -7 -15 -17 -15 -22 0 -6 -20
-33 -45 -60 -25 -28 -45 -54 -45 -59 0 -5 11 -9 25 -9 22 0 25 -4 25 -32 0
-18 0 -42 1 -53 0 -11 1 -29 0 -40 0 -57 5 -114 11 -120 4 -4 1 -20 -7 -36
-22 -41 -19 -69 5 -69 14 0 20 -7 20 -24 0 -13 7 -29 15 -36 8 -7 15 -22 15
-34 0 -11 9 -36 20 -53 22 -37 47 -42 91 -16 26 16 29 16 47 0 14 -13 37 -17
88 -17 82 0 96 -9 80 -51 -15 -40 14 -93 71 -131 34 -23 43 -37 54 -78 10 -40
18 -51 41 -59 24 -9 28 -15 28 -47 0 -45 40 -108 82 -130 25 -13 34 -13 79 0
56 17 57 17 117 -63 18 -24 29 -30 46 -25 17 4 27 -1 40 -20 19 -30 42 -34 50
-8 4 10 21 25 39 33 29 13 32 18 35 64 2 37 9 54 25 67 20 15 20 20 9 39 -20
32 12 73 59 76 19 1 41 2 49 2 9 1 47 26 85 56 59 47 73 54 100 49 24 -4 35 0
54 20 29 31 46 32 86 6 43 -29 72 -26 90 10 20 39 58 57 124 56 49 -1 55 -3
62 -26 4 -14 21 -50 38 -80 17 -30 38 -71 47 -90 9 -19 28 -45 42 -56 24 -20
25 -24 14 -49 -7 -15 -11 -29 -10 -30 2 -1 13 -8 26 -14 12 -6 22 -21 22 -31
0 -22 2 -22 76 -20 46 1 54 -2 78 -31 17 -20 25 -38 20 -48 -15 -38 -15 -52
-1 -75 17 -26 12 -36 -26 -49 -31 -11 -43 -53 -25 -90 9 -19 14 -45 11 -59 -6
-31 22 -116 46 -143 28 -31 41 -83 44 -178 2 -47 9 -92 15 -100 10 -11 9 -17
-3 -27 -11 -9 -12 -16 -5 -25 6 -7 7 -27 4 -45 -11 -52 30 -118 81 -131 23 -6
51 -23 65 -40 18 -21 39 -32 74 -38 37 -7 55 -17 73 -40 27 -34 53 -40 73 -16
7 8 23 15 37 15 13 0 41 9 61 20 20 10 49 22 64 25 19 4 34 17 48 43 11 20 31
50 45 67 19 23 27 27 37 17 6 -6 31 -12 54 -12 76 0 94 -42 44 -105 -30 -38
-38 -77 -20 -105 8 -12 14 -11 41 9 21 15 60 29 113 38 l81 14 25 -30 c23 -28
27 -29 50 -16 14 8 32 14 40 15 18 0 80 -77 106 -133 11 -22 27 -40 41 -43 16
-4 23 -13 23 -30 0 -14 6 -35 14 -47 19 -30 30 -114 31 -224 0 -80 -3 -95 -23
-123 -22 -29 -22 -33 -8 -49 10 -11 16 -36 16 -65 0 -26 7 -57 16 -71 9 -13
13 -28 10 -33 -3 -4 3 -20 12 -34 9 -14 34 -50 55 -81 45 -68 72 -76 63 -19
-6 36 -6 36 10 14 28 -38 45 -28 43 26 -2 45 21 123 44 150 7 8 22 12 38 8 17
-3 32 0 39 9 8 9 34 14 86 13 66 0 74 -2 74 -19 0 -24 12 -24 35 1 21 23 27
24 76 10 21 -6 41 -20 49 -34 9 -18 23 -26 49 -28 31 -3 36 -7 36 -28 0 -42
56 -32 161 29 96 55 104 58 104 39 0 -16 55 -16 93 0 16 7 33 12 40 12 6 0 21
12 33 28 l22 27 20 -47 c15 -33 27 -47 44 -50 13 -2 27 -13 33 -26 5 -12 18
-25 28 -28 16 -5 36 -39 51 -87 5 -14 12 -17 39 -12 30 6 37 2 75 -39 38 -41
42 -51 42 -95 0 -40 4 -52 20 -61 13 -7 20 -21 20 -38 0 -37 17 -52 57 -52 46
0 53 24 17 61 l-28 29 29 30 c16 17 32 30 35 30 4 0 13 -15 21 -32 13 -30 19
-34 64 -38 48 -5 51 -7 75 -53 l25 -48 -28 -25 c-15 -13 -36 -24 -46 -24 -12
0 -21 -10 -25 -25 -9 -35 -69 -99 -111 -119 -39 -19 -42 -26 -19 -61 17 -27
12 -74 -12 -112 -12 -18 -12 -27 -2 -42 13 -21 5 -43 -41 -116 -11 -16 -23
-47 -26 -67 -6 -34 -5 -38 24 -53 34 -17 51 -13 51 11 0 12 14 14 78 12 67 -3
77 -5 74 -20 -2 -10 2 -26 7 -36 7 -12 5 -27 -5 -49 -15 -29 -14 -32 18 -77
62 -89 68 -101 68 -137 0 -41 -11 -54 -55 -63 -19 -4 -36 -18 -47 -37 -16 -28
-21 -29 -70 -27 l-53 3 -37 -72 c-31 -63 -35 -78 -28 -105 5 -18 23 -44 39
-58 l30 -26 -24 -39 c-35 -57 -33 -65 21 -65 57 0 129 -49 119 -81 -7 -21 -9
-20 78 -21 32 0 63 5 70 10 26 21 95 35 124 25 23 -8 36 -7 63 7 33 17 35 17
59 -1 13 -10 30 -19 38 -19 7 0 39 -11 71 -24 32 -13 93 -29 136 -35 77 -11
148 -31 188 -52 16 -9 31 -6 74 16 37 19 64 26 86 23 57 -9 95 8 120 55 22 40
25 42 76 45 50 3 54 5 67 36 19 45 31 53 100 59 33 2 92 14 130 25 39 12 90
26 114 32 l44 12 -7 69 c-5 58 -3 78 14 116 25 58 26 111 3 120 -36 13 -45 57
-16 78 10 7 24 34 33 61 14 41 24 52 78 85 34 21 71 41 83 44 16 5 19 12 14
32 -4 19 -1 29 15 40 11 8 20 24 20 37 0 26 20 46 70 71 19 9 57 38 84 64 34
32 50 42 53 32 14 -36 43 -51 101 -51 60 0 82 -11 82 -42 0 -11 7 -18 20 -18
38 0 35 -29 -6 -64 l-39 -34 0 -83 c0 -86 -15 -115 -35 -65 -5 14 -16 26 -24
26 -20 0 -39 -27 -32 -46 3 -8 -1 -38 -10 -65 -12 -36 -21 -49 -35 -49 -22 0
-39 -32 -21 -38 7 -2 12 -17 12 -32 0 -19 7 -33 20 -40 30 -16 24 -43 -15 -79
-19 -17 -35 -41 -36 -54 -1 -44 -9 -142 -14 -163 -3 -14 -15 -24 -34 -27 -30
-6 -41 -33 -41 -102 0 -29 5 -35 43 -50 23 -9 58 -17 76 -17 59 0 81 -13 81
-49 0 -24 12 -42 60 -88 61 -59 73 -84 44 -95 -15 -6 -15 -8 0 -25 16 -18 16
-20 -9 -39 -15 -12 -32 -43 -43 -79 -15 -48 -22 -58 -40 -57 -26 1 -26 -2 -7
-36 8 -14 14 -39 15 -57 0 -22 7 -36 20 -43 12 -7 19 -19 18 -34 -1 -14 4 -36
12 -50 11 -22 11 -28 -2 -43 -23 -28 -59 -131 -47 -138 5 -4 22 -4 38 0 15 3
49 1 74 -6 62 -15 129 -4 167 28 24 20 43 26 93 28 l62 4 60 -65 c68 -72 101
-89 198 -99 56 -5 70 -11 85 -31 9 -14 27 -38 40 -54 13 -16 34 -63 48 -103
35 -105 44 -115 86 -99 18 7 37 14 42 15 5 1 14 -20 18 -48 13 -69 19 -74 90
-69 47 3 66 0 80 -13 16 -14 22 -14 43 -3 21 11 27 11 43 -3 25 -22 31 -21 54
8 11 14 23 25 28 25 13 0 210 -195 210 -208 0 -15 -26 -58 -53 -89 -16 -18
-18 -30 -12 -72 4 -28 10 -53 14 -55 4 -3 25 1 47 8 27 10 43 23 53 45 14 30
43 42 56 22 8 -13 95 -61 111 -61 7 0 18 -9 24 -20 6 -11 17 -20 25 -20 8 0
21 -13 29 -29 9 -16 22 -31 31 -34 10 -4 15 -20 15 -49 0 -54 19 -92 48 -96
26 -4 26 -5 10 -48 -11 -30 -9 -34 25 -67 46 -43 48 -73 7 -112 -35 -34 -37
-41 -10 -50 11 -4 28 -23 38 -43 22 -47 37 -50 57 -12 14 28 19 30 49 24 44
-8 110 22 155 70 27 28 43 36 70 36 43 0 94 -29 117 -67 10 -15 19 -30 21 -32
2 -2 12 4 23 14 22 20 26 46 9 73 -10 16 -4 26 39 69 28 29 61 55 73 58 33 11
103 -4 156 -32 43 -22 52 -24 81 -13 25 9 37 9 45 1 27 -27 57 -6 57 38 0 18
39 61 56 61 6 0 23 -14 39 -30 20 -21 38 -30 61 -30 18 0 36 -5 39 -10 4 -7
11 -7 18 -2 7 5 24 12 39 16 17 4 34 18 43 36 8 16 28 36 45 45 34 18 40 26
50 71 7 31 6 33 -24 36 -25 2 -32 8 -34 30 -3 23 3 32 32 49 22 13 39 33 46
55 7 21 23 40 40 49 17 9 30 25 34 42 29 149 29 154 12 171 -9 9 -40 28 -69
42 l-52 25 3 45 c2 38 9 50 39 75 l36 31 -21 40 c-31 60 -45 69 -90 56 -45
-14 -96 -3 -100 22 -2 9 4 29 13 43 17 25 16 26 -14 54 -17 15 -31 34 -31 43
0 8 -18 48 -40 90 -22 41 -40 83 -40 92 0 15 -8 16 -59 11 l-59 -6 -6 52 c-3
29 -10 84 -15 122 -6 42 -6 74 0 79 5 6 9 22 9 37 0 15 5 31 11 34 5 4 9 21 7
38 -3 30 0 32 32 37 31 4 35 8 35 35 0 26 -7 34 -60 62 -82 43 -86 52 -40 96
21 20 42 37 47 37 4 0 8 18 8 39 0 22 5 43 11 47 6 3 9 19 5 35 -4 19 2 42 20
72 34 63 48 73 80 58 32 -14 34 -14 34 3 0 8 23 30 50 50 55 40 63 67 25 84
-27 12 -38 43 -33 88 2 22 15 35 57 59 55 33 77 57 65 76 -3 6 4 21 17 35 l22
24 -23 25 c-23 25 -24 27 -10 68 12 32 24 46 53 60 34 17 37 22 37 62 0 24 5
47 10 50 6 3 10 21 10 39 0 42 18 58 115 100 90 39 105 55 105 107 0 20 7 42
15 49 11 9 12 17 4 32 -8 14 -7 28 1 49 12 28 19 33 50 30 9 -1 45 8 80 19 35
11 67 17 71 13 4 -5 9 -26 11 -48 3 -36 7 -42 52 -66 61 -33 96 -27 112 19 17
53 26 56 80 30 34 -16 49 -29 50 -43 0 -11 4 -28 8 -37 5 -10 1 -26 -8 -41
-21 -31 -13 -52 26 -68 30 -12 32 -11 66 26 37 41 38 37 -15 72 -17 11 -17 13
5 31 21 16 22 20 8 31 -30 25 -13 63 31 68 122 16 115 13 108 42 -4 14 -6 46
-5 70 1 31 -6 54 -25 82 -41 62 -35 85 41 156 36 34 82 67 102 74 21 7 47 18
58 26 12 7 44 16 70 19 30 4 61 16 79 30 26 21 28 25 17 49 -16 36 -15 55 5
77 10 11 18 29 18 41 0 15 7 23 22 25 19 3 21 8 16 33 -5 25 -2 29 16 29 12 0
31 5 43 11 16 9 23 7 35 -10 8 -12 19 -21 25 -21 7 0 22 -10 35 -22 22 -21 23
-21 44 -2 12 10 40 26 62 34 41 15 42 16 45 69 3 59 -14 88 -71 118 -16 8 -35
29 -42 46 -7 18 -25 43 -39 56 -31 29 -33 42 -6 59 11 7 20 19 20 28 0 9 10
29 21 46 16 22 20 38 16 65 -4 23 -1 46 9 65 10 18 14 49 12 85 -3 54 -5 57
-33 65 -70 19 -100 87 -65 146 22 35 18 42 -25 42 -22 0 -40 9 -59 29 -24 25
-31 28 -47 18 -15 -9 -25 -8 -46 4 -16 8 -39 14 -53 11 -14 -2 -41 -4 -60 -5
-19 -1 -50 -10 -68 -20 -35 -19 -52 -16 -52 11 -1 37 -38 95 -69 108 -32 13
-41 40 -20 61 8 8 3 16 -20 28 -17 9 -29 20 -26 25 3 5 1 19 -5 31 -19 34 -4
67 39 89 26 13 41 28 43 42 2 13 15 29 31 36 15 8 32 24 37 37 7 17 14 22 29
18 17 -4 24 2 36 30 8 19 26 44 40 55 30 24 52 79 38 93 -6 6 -25 6 -53 0 -38
-8 -49 -7 -89 15 -55 29 -67 30 -106 4 -39 -26 -49 -25 -42 2 4 14 0 29 -11
41 -16 18 -16 20 1 32 24 17 21 32 -13 72 -16 18 -30 41 -30 50 0 10 -11 26
-24 38 -14 11 -47 63 -74 115 -56 107 -68 117 -170 130 -166 23 -170 25 -148
88 l15 41 -37 22 c-29 17 -50 21 -95 20 -49 -2 -65 2 -97 24 l-38 26 -64 -25
c-81 -32 -143 -42 -162 -27 -8 7 -18 26 -21 42 -8 36 -20 36 -79 3 -46 -26
-66 -25 -66 2 0 18 -14 18 -68 -3 -43 -16 -43 -16 -70 10 -16 15 -36 27 -45
27 -10 0 -20 12 -25 32 -4 18 -15 34 -24 36 -21 4 -102 -59 -107 -83 -7 -38
-21 -47 -48 -30 -23 15 -27 15 -60 -5 -35 -21 -73 -19 -73 3 0 7 9 27 20 45
22 36 26 82 9 99 -9 9 -9 23 0 57 6 25 11 47 11 50 0 9 -72 43 -106 50 -31 7
-54 38 -54 75 0 9 -7 26 -15 37 -17 23 -19 98 -4 143 7 19 29 43 59 64 64 43
130 121 130 154 0 20 4 24 18 18 47 -20 49 -18 70 43 11 32 34 78 51 102 38
53 39 85 1 130 -17 19 -30 41 -30 50 0 9 22 38 49 64 45 45 50 54 56 110 4 33
13 73 21 87 12 24 11 29 -7 45 -22 20 -22 25 3 117 11 41 16 47 33 42 45 -14
50 -11 53 32 2 23 10 47 18 53 12 11 11 17 -7 47 -12 19 -20 35 -18 37 17 11
64 26 82 26 56 0 53 52 -3 63 -67 14 -40 72 56 118 35 16 64 36 64 43 0 7 -12
23 -26 37 -14 13 -38 44 -52 68 -25 43 -26 44 -40 23 -8 -12 -25 -22 -37 -22
-13 0 -37 -12 -54 -26 -35 -29 -51 -25 -51 14 0 16 -8 32 -20 40 -17 10 -19
16 -9 33 16 32 6 44 -59 67 -69 26 -101 27 -128 7 -22 -17 -55 -19 -98 -5 -17
5 -44 12 -59 15 -17 3 -31 15 -37 29 -12 32 -13 32 -175 97 l-140 56 -7 49
c-4 27 -3 76 3 108 14 77 8 97 -37 121 -20 11 -47 36 -60 57 -25 40 -59 61
-110 71 -29 6 -35 2 -59 -34 -18 -27 -42 -47 -73 -61 -26 -11 -63 -35 -82 -54
-35 -33 -36 -34 -92 -24 -32 5 -66 13 -76 19 -11 6 -38 15 -61 20 -39 9 -42 8
-56 -19 -23 -44 -63 -53 -176 -39 -72 9 -105 9 -129 1 -33 -12 -56 -6 -78 21
-9 10 -7 33 8 96 33 136 27 159 -49 186 -61 21 -77 19 -138 -15 -58 -33 -99
-38 -129 -16 -16 12 -19 27 -19 105 0 70 -4 93 -16 103 -8 7 -53 57 -99 112
l-84 98 47 88 c60 112 61 146 10 248 -27 52 -47 79 -68 89 -16 9 -49 29 -72
45 -23 17 -46 27 -52 24 -6 -4 -23 -27 -37 -52 -19 -33 -25 -54 -21 -77 3 -18
0 -43 -7 -57 -6 -14 -65 -77 -131 -140 -66 -63 -123 -122 -127 -131 -11 -28
-30 -33 -44 -13 -60 85 -81 104 -113 104 -16 0 -34 -7 -41 -15 -16 -19 -43
-19 -82 1 -24 12 -36 14 -49 6 -9 -6 -44 -16 -78 -23 -58 -12 -62 -12 -85 10
-30 29 -52 79 -40 91 16 16 111 -5 154 -35 22 -15 43 -25 47 -21 4 3 -1 30
-10 60 -21 66 -21 70 2 120 10 23 23 61 29 86 12 52 3 70 -35 70 -18 0 -28 9
-38 34 -14 33 -31 46 -63 46 -9 0 -30 7 -46 15 -35 19 -43 18 -84 -2z"/>
<path d="M7975 10193 c-11 -3 -24 -9 -29 -14 -17 -15 29 -10 50 6 19 15 15 16
-21 8z"/>
<path d="M7898 10136 c-3 -25 1 -37 14 -45 27 -17 45 -13 51 9 3 11 1 20 -5
20 -5 0 -6 9 -3 20 8 24 2 25 -19 4 -14 -13 -16 -14 -16 0 0 31 -18 24 -22 -8z"/>
</g>
</svg>
