<?xml version="1.0" encoding="utf-8"?>
<!-- Generator: Adobe Illustrator 13.0.0, SVG Export Plug-In . SVG Version: 6.00 Build 14948)  -->
<!DOCTYPE svg PUBLIC "-//W3C//DTD SVG 1.1//EN" "http://www.w3.org/Graphics/SVG/1.1/DTD/svg11.dtd" [
	<!ENTITY ns_flows "http://ns.adobe.com/Flows/1.0/">
	<!ENTITY ns_extend "http://ns.adobe.com/Extensibility/1.0/">
	<!ENTITY ns_ai "http://ns.adobe.com/AdobeIllustrator/10.0/">
	<!ENTITY ns_graphs "http://ns.adobe.com/Graphs/1.0/">
	<!ENTITY ns_vars "http://ns.adobe.com/Variables/1.0/">
	<!ENTITY ns_imrep "http://ns.adobe.com/ImageReplacement/1.0/">
	<!ENTITY ns_sfw "http://ns.adobe.com/SaveForWeb/1.0/">
	<!ENTITY ns_custom "http://ns.adobe.com/GenericCustomNamespace/1.0/">
	<!ENTITY ns_adobe_xpath "http://ns.adobe.com/XPath/1.0/">
]>
<svg version="1.1" id="Layer_1" xmlns:x="&ns_extend;" xmlns:i="&ns_ai;" xmlns:graph="&ns_graphs;"
	 xmlns="http://www.w3.org/2000/svg" xmlns:xlink="http://www.w3.org/1999/xlink" xmlns:a="http://ns.adobe.com/AdobeSVGViewerExtensions/3.0/"
	 x="0px" y="0px" width="187.086px" height="125.329px" viewBox="0 0 187.086 125.329" enable-background="new 0 0 187.086 125.329"
	 xml:space="preserve">
<metadata>
	<sfw  xmlns="&ns_sfw;">
		<slices></slices>
		<sliceSourceBounds  x="211.834" y="332.957" width="187.086" height="125.329" bottomLeftOrigin="true"></sliceSourceBounds>
	</sfw>
</metadata>
<g>
	<path fill-rule="evenodd" clip-rule="evenodd" fill="#0077C0" d="M102.855,30.125c-6.548,16.208-24.967,15.962-24.967,15.962
		H33.602l2.375-5.32h40.848C76.825,40.767,94.67,41.093,102.855,30.125L102.855,30.125z"/>
	<path fill-rule="evenodd" clip-rule="evenodd" fill="#0077C0" d="M99.212,38.311c-6.549,16.208-24.967,15.961-24.967,15.961H29.959
		l2.375-5.32h40.848C73.182,48.952,91.027,49.278,99.212,38.311L99.212,38.311z"/>
	<path fill-rule="evenodd" clip-rule="evenodd" fill="#0077C0" d="M112.883,24.148C119.431,7.94,137.85,8.186,137.85,8.186h45.595
		l-2.374,5.321h-42.156C138.915,13.507,121.068,13.179,112.883,24.148L112.883,24.148z"/>
	<path fill-rule="evenodd" clip-rule="evenodd" fill="#0077C0" d="M116.526,15.963C123.075-0.245,141.493,0,141.493,0h45.594
		l-2.372,5.321h-42.158C142.556,5.321,124.711,4.994,116.526,15.963L116.526,15.963z"/>
	<path fill-rule="evenodd" clip-rule="evenodd" fill="#FFFFFF" d="M95.571,46.496c-6.549,16.208-24.969,15.962-24.969,15.962H26.318
		l2.374-5.32h40.846C69.538,57.138,87.384,57.465,95.571,46.496L95.571,46.496z"/>
	<path fill-rule="evenodd" clip-rule="evenodd" fill="#FFFFFF" d="M109.241,32.334c6.549-16.208,24.967-15.963,24.967-15.963h45.595
		l-2.374,5.321h-42.156C135.272,21.692,117.426,21.365,109.241,32.334L109.241,32.334z"/>
	<path fill-rule="evenodd" clip-rule="evenodd" fill="#EE3224" d="M91.928,54.682c-6.55,16.21-24.967,15.966-24.967,15.966H22.675
		l2.375-5.324h40.845C65.895,65.323,83.741,65.651,91.928,54.682L91.928,54.682z"/>
	<path fill-rule="evenodd" clip-rule="evenodd" fill="#EE3224" d="M88.285,62.868c-6.55,16.209-24.967,15.963-24.967,15.963H19.032
		l2.375-5.32h40.846C62.253,73.511,80.098,73.839,88.285,62.868L88.285,62.868z"/>
	<path fill-rule="evenodd" clip-rule="evenodd" fill="#EE3224" d="M101.955,48.706c6.549-16.208,24.968-15.962,24.968-15.962h45.595
		l-2.374,5.32h-42.156C127.987,38.064,110.14,37.738,101.955,48.706L101.955,48.706z"/>
	<path fill-rule="evenodd" clip-rule="evenodd" fill="#EE3224" d="M105.598,40.52c6.549-16.208,24.966-15.962,24.966-15.962h45.595
		l-2.373,5.32h-42.157C131.628,29.878,113.784,29.55,105.598,40.52L105.598,40.52z"/>
	<polygon fill-rule="evenodd" clip-rule="evenodd" points="20.755,111.72 17.479,111.72 30.45,82.597 17.355,82.597 0,121.562 
		29.468,121.562 46.823,82.597 33.726,82.597 20.755,111.72 	"/>
	<path fill-rule="evenodd" clip-rule="evenodd" d="M121.888,53.126h9.822l4.707-10.805h-13.466
		c-30.205,0-28.568,40.275-59.676,40.275H50.097l-17.354,38.965h13.016c33.89,0,26.521-38.965,57.792-38.965l5.238-11.945
		c-28.159,0-32.088,41.068-56.319,41.068h-2.9l1.892-4.252h5.756c20.957,0,26.523-40.59,55.501-40.59h12.852l4.502-9.986h-13.424
		c-13.931,0-21.754,8.039-28.269,16.875C95.63,63.548,103.611,53.126,121.888,53.126L121.888,53.126L121.888,53.126z M61.639,96.55
		h-5.313l1.474-3.313h3.186c12.052,0,18.403-7.018,24.339-15.18C78.728,87.505,72.741,96.55,61.639,96.55L61.639,96.55z"/>
	<path fill-rule="evenodd" clip-rule="evenodd" d="M139.324,42.322l-4.802,10.798h16.358l-1.671,3.771h-16.332l-10.908,24.396
		h28.813l17.354-38.966H139.324L139.324,42.322L139.324,42.322z M139.138,70.671l1.7-3.811h3.929l-1.699,3.811H139.138
		L139.138,70.671z"/>
	<polygon fill-rule="evenodd" clip-rule="evenodd" points="182.448,87.288 180.442,87.288 171.026,108.476 180.794,108.476 
		181.54,106.784 173.784,106.784 182.448,87.288 	"/>
	<polygon fill-rule="evenodd" clip-rule="evenodd" points="172.277,87.288 163.613,106.784 151.775,106.784 169.523,87.288 
		167.351,87.288 148.063,108.476 164.868,108.476 174.283,87.288 172.277,87.288 	"/>
	<polygon fill-rule="evenodd" clip-rule="evenodd" points="168.245,114.731 163.537,125.329 165.542,125.329 169.504,116.411 
		177.298,116.411 178.044,114.731 168.245,114.731 	"/>
	<path fill-rule="evenodd" clip-rule="evenodd" d="M136.668,114.731l1.588-3.621l21.303-23.822h-2.173L140.5,106.103l8.327-18.758
		h-28.813l-16.862,37.982h28.814l3.958-8.916h23.411l-3.963,8.918h2.006l4.709-10.598H136.668L136.668,114.731L136.668,114.731z
		 M130.865,123.368h-24.869l15.107-34.049h24.885L130.865,123.368L130.865,123.368z"/>
	<path fill-rule="evenodd" clip-rule="evenodd" d="M124.05,95.202l-3.701,8.352h13.424l3.717-8.352H124.05L124.05,95.202
		L124.05,95.202z M132.686,101.577h-9.495l1.961-4.42h9.496L132.686,101.577L132.686,101.577z"/>
	<path fill-rule="evenodd" clip-rule="evenodd" d="M117.778,108.935l-3.701,8.352H127.5l3.717-8.352H117.778L117.778,108.935
		L117.778,108.935z M126.414,115.31h-9.495l1.961-4.42h9.496L126.414,115.31L126.414,115.31z"/>
</g>
</svg>
