<?xml version="1.0" encoding="utf-8"?>
<!-- Generator: Adobe Illustrator 13.0.2, SVG Export Plug-In . SVG Version: 6.00 Build 14948)  -->
<!DOCTYPE svg PUBLIC "-//W3C//DTD SVG 1.0//EN" "http://www.w3.org/TR/2001/REC-SVG-20010904/DTD/svg10.dtd">
<svg version="1.0" id="Ebene_1" xmlns="http://www.w3.org/2000/svg" xmlns:xlink="http://www.w3.org/1999/xlink" x="0px" y="0px"
	 width="527.244px" height="352.159px" viewBox="0 0 527.244 352.159" enable-background="new 0 0 527.244 352.159"
	 xml:space="preserve">
<path fill-rule="evenodd" clip-rule="evenodd" d="M370.037,352.153l29.499-66.486h-53.487l5.704-12.891h53.52l12.287-27.662h-81.205
	l-47.522,107.039H370.037L370.037,352.153L370.037,352.153L370.037,352.153z M339.454,250.64h70.087l-7.368,16.617h-53.487
	l-10.685,24.064h53.49l-24.527,55.271h-70.131L339.454,250.64L339.454,250.64L339.454,250.64z"/>
<polygon fill-rule="evenodd" clip-rule="evenodd" points="355.556,324.503 328.79,324.503 334.321,312.04 361.078,312.04 
	355.556,324.503 358.661,330.011 369.091,306.479 331.257,306.479 320.78,330.011 358.661,330.011 355.556,324.503 355.556,324.503 
	"/>
<path fill-rule="evenodd" clip-rule="evenodd" d="M426.536,245.114l-47.522,107.045h81.205l47.522-107.045H426.536L426.536,245.114
	L426.536,245.114L426.536,245.114z M457.116,346.64h-70.084l42.577-95.959h70.131L457.116,346.64L457.116,346.64L457.116,346.64z"/>
<path fill-rule="evenodd" clip-rule="evenodd" d="M437.915,267.263l-10.433,23.531h37.831l10.477-23.531H437.915L437.915,267.263
	L437.915,267.263L437.915,267.263z M462.252,285.233h-26.757l5.525-12.463h26.76L462.252,285.233L462.252,285.233L462.252,285.233z"
	/>
<path fill-rule="evenodd" clip-rule="evenodd" d="M420.237,305.964l-10.433,23.531h37.834l10.474-23.531H420.237L420.237,305.964
	L420.237,305.964L420.237,305.964z M444.574,323.935h-26.76l5.525-12.463h26.763L444.574,323.935L444.574,323.935L444.574,323.935z"
	/>
<path fill-rule="evenodd" clip-rule="evenodd" fill="#009932" d="M289.866,84.897c-18.454,45.677-70.362,44.984-70.362,44.984
	H94.696l6.693-14.993h115.118C216.507,114.888,266.797,115.807,289.866,84.897L289.866,84.897L289.866,84.897z"/>
<path fill-rule="evenodd" clip-rule="evenodd" fill="#009932" d="M279.598,107.965c-18.454,45.678-70.361,44.984-70.361,44.984
	H84.431l6.691-14.993H206.24C206.24,137.957,256.531,138.875,279.598,107.965L279.598,107.965L279.598,107.965z"/>
<path fill-rule="evenodd" clip-rule="evenodd" fill="#009932" d="M318.126,68.054c18.454-45.677,70.362-44.985,70.362-44.985
	h128.493l-6.691,14.996H391.485C391.485,38.064,341.191,37.142,318.126,68.054L318.126,68.054L318.126,68.054z"/>
<path fill-rule="evenodd" clip-rule="evenodd" fill="#009932" d="M328.392,44.986C346.849-0.691,398.751,0,398.751,0h128.493
	l-6.686,14.996H401.751C401.751,14.996,351.46,14.073,328.392,44.986L328.392,44.986L328.392,44.986z"/>
<path fill-rule="evenodd" clip-rule="evenodd" fill="#FFFFFF" d="M269.335,131.034c-18.454,45.678-70.365,44.985-70.365,44.985
	h-124.8l6.69-14.994h115.112C195.971,161.025,246.264,161.948,269.335,131.034L269.335,131.034L269.335,131.034z"/>
<path fill-rule="evenodd" clip-rule="evenodd" fill="#FFFFFF" d="M307.86,91.124c18.457-45.677,70.362-44.987,70.362-44.987h128.493
	l-6.691,14.996H381.223C381.223,61.133,330.929,60.21,307.86,91.124L307.86,91.124L307.86,91.124z"/>
<path fill-rule="evenodd" clip-rule="evenodd" fill="#DC3417" d="M259.068,154.104c-18.457,45.683-70.361,44.997-70.361,44.997
	H63.904l6.691-15.006h115.11C185.706,184.095,235.998,185.021,259.068,154.104L259.068,154.104L259.068,154.104z"/>
<path fill-rule="evenodd" clip-rule="evenodd" fill="#DC3417" d="M248.802,177.172c-18.458,45.683-70.362,44.991-70.362,44.991
	H53.637l6.691-14.994H175.44C175.44,207.169,225.731,208.089,248.802,177.172L248.802,177.172L248.802,177.172z"/>
<path fill-rule="evenodd" clip-rule="evenodd" fill="#DC3417" d="M287.326,137.262c18.457-45.678,70.365-44.984,70.365-44.984
	h128.493l-6.688,14.993H360.691C360.691,107.271,310.395,106.353,287.326,137.262L287.326,137.262L287.326,137.262z"/>
<path fill-rule="evenodd" clip-rule="evenodd" fill="#DC3417" d="M297.595,114.194c18.457-45.678,70.359-44.985,70.359-44.985
	h128.493l-6.686,14.994H370.954C370.954,84.203,320.663,83.278,297.595,114.194L297.595,114.194L297.595,114.194z"/>
<polygon fill-rule="evenodd" clip-rule="evenodd" points="58.491,314.847 49.26,314.847 85.815,232.774 48.911,232.774 0,342.585 
	83.045,342.585 131.955,232.774 95.045,232.774 58.491,314.847 58.491,314.847 "/>
<path fill-rule="evenodd" clip-rule="evenodd" d="M343.503,149.721h27.683l13.263-30.45H346.5
	c-85.122,0-80.511,113.503-168.176,113.503h-37.143L92.276,342.585h36.68c95.508,0,74.744-109.811,162.87-109.811l14.763-33.668
	c-79.356,0-90.431,115.74-158.716,115.74h-8.174l5.332-11.982h16.22c59.06,0,74.747-114.387,156.412-114.387h36.22l12.686-28.147
	h-37.831c-39.258,0-61.306,22.657-79.666,47.559C269.505,179.091,291.996,149.721,343.503,149.721L343.503,149.721L343.503,149.721
	L343.503,149.721z M173.71,272.097h-14.975l4.153-9.334h8.978c33.964,0,51.864-19.781,68.593-42.785
	C221.871,246.603,204.998,272.097,173.71,272.097L173.71,272.097L173.71,272.097z"/>
<path fill-rule="evenodd" clip-rule="evenodd" d="M392.64,119.271l-13.532,30.431h46.102l-4.708,10.629h-46.028l-30.741,68.752
	h81.202l48.905-109.812H392.64L392.64,119.271L392.64,119.271L392.64,119.271z M392.118,199.165l4.79-10.74h11.071l-4.787,10.74
	H392.118L392.118,199.165L392.118,199.165z"/>
</svg>
