<?xml version="1.0" standalone="no"?>
<!DOCTYPE svg PUBLIC "-//W3C//DTD SVG 20010904//EN"
 "http://www.w3.org/TR/2001/REC-SVG-20010904/DTD/svg10.dtd">
<svg version="1.0" xmlns="http://www.w3.org/2000/svg"
 width="640.000000pt" height="1280.000000pt" viewBox="0 0 640.000000 1280.000000"
 preserveAspectRatio="xMidYMid meet">
<metadata>
Created by potrace 1.15, written by Peter Selinger 2001-2017
</metadata>
<g transform="translate(0.000000,1280.000000) scale(0.100000,-0.100000)"
fill="#000000" stroke="none">
<path d="M4213 12793 c-64 -6 -73 -25 -34 -73 18 -22 39 -57 48 -78 28 -68 -2
-209 -63 -289 l-27 -36 38 -31 38 -32 -38 -52 c-20 -29 -40 -52 -43 -52 -4 0
-78 25 -165 55 -151 53 -161 55 -215 46 -50 -9 -60 -7 -82 10 -71 55 -69 54
-105 35 -19 -10 -39 -32 -46 -48 -16 -39 -14 -132 5 -226 l14 -74 -44 -101
c-24 -56 -44 -103 -44 -105 0 -2 -17 10 -37 27 -48 37 -130 81 -154 81 -10 0
-59 -34 -108 -75 l-90 -75 -46 -148 c-65 -209 -68 -216 -90 -220 -58 -8 -64
-13 -82 -59 -10 -27 -16 -55 -14 -63 1 -8 25 -63 51 -122 48 -105 49 -109 43
-180 l-6 -73 -66 -70 c-40 -43 -83 -104 -111 -155 -24 -47 -73 -128 -108 -180
l-64 -95 9 -93 8 -92 -92 -65 c-89 -63 -93 -65 -172 -71 -79 -7 -80 -7 -76
-33 22 -144 26 -256 11 -373 -8 -68 -18 -179 -22 -248 -6 -114 -8 -127 -29
-145 -14 -11 -30 -46 -40 -80 -10 -37 -69 -152 -152 -299 l-136 -240 34 -28
c19 -16 53 -41 75 -55 40 -26 42 -29 48 -92 11 -123 7 -176 -20 -247 -14 -38
-29 -73 -33 -77 -5 -5 -64 4 -132 18 -167 35 -269 33 -321 -7 -26 -20 -249
-308 -276 -356 -21 -38 -24 -52 -18 -104 6 -59 5 -60 -47 -141 -62 -98 -64
-125 -18 -260 l30 -89 -31 -61 c-28 -57 -30 -66 -24 -134 6 -66 5 -77 -18
-116 l-24 -42 40 -169 41 -168 -37 -237 c-20 -130 -36 -245 -36 -256 0 -27
128 -154 165 -163 22 -6 41 -28 82 -93 l53 -86 -36 -129 c-20 -71 -41 -134
-47 -140 -7 -6 -54 -22 -105 -34 l-92 -22 6 -37 c20 -115 48 -222 84 -313 54
-139 52 -218 -9 -272 -18 -17 -21 -30 -21 -101 0 -46 -3 -97 -6 -114 -13 -63
-165 -181 -233 -181 -13 0 -39 -12 -58 -26 l-34 -26 20 -22 c35 -37 19 -81
-52 -146 l-60 -55 26 -144 c15 -79 25 -147 22 -151 -3 -4 -10 -43 -15 -86 -6
-45 -19 -90 -29 -104 -10 -14 -24 -43 -31 -65 -17 -52 -28 -65 -56 -65 -30 0
-41 22 -56 112 -6 40 -15 77 -19 81 -4 5 -19 1 -34 -9 -14 -9 -41 -24 -58 -33
-29 -14 -33 -22 -38 -71 -4 -36 -1 -74 8 -109 12 -41 12 -59 4 -78 -16 -35
-13 -82 8 -130 13 -28 18 -54 14 -82 -4 -25 0 -55 10 -80 16 -39 16 -40 -10
-59 -17 -13 -24 -25 -20 -36 7 -18 42 -22 52 -6 3 5 13 10 22 10 11 0 14 -6 9
-20 -3 -11 -9 -29 -12 -40 -9 -28 21 -37 46 -15 29 26 24 13 -10 -30 -29 -37
-39 -65 -22 -65 5 0 37 22 73 50 35 27 72 50 81 50 27 0 58 -48 58 -90 0 -21
-9 -67 -20 -102 -11 -34 -20 -82 -20 -104 0 -31 -9 -55 -36 -94 -39 -56 -40
-48 11 -116 6 -9 4 -19 -8 -32 -26 -29 -21 -53 24 -107 35 -43 40 -54 35 -85
-19 -121 -19 -144 3 -170 l21 -25 19 24 18 24 7 -39 c4 -21 8 -55 9 -74 1 -19
9 -46 17 -60 18 -32 87 -204 100 -250 5 -20 30 -59 54 -88 68 -79 86 -108 86
-135 0 -31 46 -77 77 -77 16 0 27 -8 33 -26 14 -37 12 -107 -4 -129 -13 -18
-19 -18 -57 -8 -24 6 -47 9 -51 7 -5 -3 -8 -24 -8 -46 0 -35 7 -48 46 -90 79
-85 39 -133 -52 -63 -88 66 -94 30 -21 -125 30 -63 60 -133 67 -155 7 -22 24
-54 37 -72 14 -18 27 -52 30 -75 4 -31 16 -55 45 -86 45 -49 41 -63 -20 -89
-43 -18 -47 -33 -28 -90 21 -61 20 -63 -9 -63 -29 0 -47 -28 -34 -52 7 -13 15
-15 42 -7 47 13 49 13 113 -31 69 -46 85 -48 145 -16 25 12 67 26 94 30 27 4
77 17 112 27 l64 20 30 -25 c23 -20 42 -26 77 -26 57 0 62 3 97 59 37 59 35
93 -8 180 -20 41 -37 89 -37 106 0 63 102 224 162 256 16 9 24 6 43 -15 27
-29 82 -36 91 -12 3 8 -4 28 -16 44 -43 58 -17 79 103 81 52 1 67 4 67 16 0
20 7 19 36 -4 18 -14 34 -18 58 -14 20 3 36 1 40 -6 11 -17 49 -13 101 9 70
30 92 26 136 -21 42 -46 63 -46 79 -2 6 16 27 42 47 59 34 30 37 37 49 123 7
50 20 105 29 123 9 18 30 67 46 108 17 41 43 92 60 112 42 54 55 84 40 101 -9
11 -8 30 4 81 11 47 13 72 5 86 -14 26 -14 28 20 35 35 8 38 26 15 90 -8 22
-15 56 -15 76 0 48 28 127 57 162 30 37 32 126 3 174 l-19 32 41 52 42 52 -25
19 c-13 11 -23 28 -21 37 1 9 -11 30 -28 46 -33 32 -37 47 -15 65 11 9 20 8
44 -9 16 -12 36 -21 45 -21 24 0 20 51 -6 96 -20 34 -20 38 -5 49 14 10 15 18
6 46 -6 19 -14 42 -19 51 -8 13 -4 17 17 20 42 5 51 31 26 75 -19 34 -20 40
-7 58 13 18 12 21 -13 33 -24 13 -25 16 -10 27 23 17 21 24 -8 35 -36 14 -31
27 19 51 64 30 72 42 48 76 -46 64 -61 71 -169 82 -70 7 -111 7 -129 1 -31
-12 -39 -8 -30 15 10 27 37 29 165 10 193 -29 234 -21 253 50 l11 42 76 9 c68
8 76 11 79 32 3 16 10 22 28 22 28 0 29 5 9 40 -19 34 -18 43 4 31 22 -12 31
-5 31 26 0 21 48 102 61 103 7 0 39 -126 39 -154 0 -18 2 -18 24 3 25 24 36
46 55 119 16 58 67 115 97 108 12 -3 29 -3 38 0 27 10 56 73 56 120 0 37 -3
44 -19 44 -25 0 -33 13 -23 39 7 20 10 19 47 -19 21 -22 45 -40 52 -40 15 0
71 58 79 82 6 21 -35 79 -71 98 -24 13 -28 12 -51 -13 -14 -15 -34 -27 -45
-27 -11 0 -34 -7 -51 -16 -58 -30 -105 19 -58 61 19 18 20 17 20 -3 0 -32 47
-30 60 2 5 15 20 27 38 31 17 3 34 16 40 30 6 13 29 37 51 53 48 35 93 86 89
102 -5 19 44 50 87 57 47 7 65 19 65 44 0 15 -7 17 -55 12 -38 -4 -55 -2 -55
6 0 6 10 11 23 11 38 0 49 19 26 48 -20 26 -18 45 3 24 16 -16 45 -15 51 2 4
9 -8 25 -29 41 -33 25 -94 117 -94 142 0 6 -5 24 -10 38 -8 22 -13 25 -25 15
-10 -9 -19 -9 -35 0 -12 7 -32 9 -44 6 -18 -4 -29 5 -63 57 -23 34 -40 63 -38
65 2 2 21 -7 44 -20 32 -18 43 -20 52 -11 17 17 -50 79 -131 122 -32 17 -70
46 -84 64 -15 17 -35 41 -45 52 -11 11 -21 36 -23 55 -3 31 -6 35 -28 32 -48
-6 -82 -26 -94 -54 l-12 -28 -27 28 c-24 25 -26 32 -17 56 16 43 13 46 -44 46
-30 0 -66 4 -81 10 -32 12 -44 39 -22 52 21 11 21 37 2 62 -8 11 -15 36 -15
57 0 31 -4 38 -25 43 -28 7 -31 25 -13 76 9 26 9 35 0 38 -7 2 -12 24 -12 50
0 25 -5 60 -12 78 -10 28 -9 36 5 52 10 11 15 26 12 34 -3 8 3 23 15 33 27 25
26 32 -16 71 -20 20 -29 34 -21 34 20 0 11 140 -9 156 -19 15 -1 64 26 71 24
6 25 11 3 35 -15 17 -15 18 2 18 10 0 38 -21 61 -46 47 -50 64 -50 64 -1 0 43
-42 157 -57 157 -21 0 -16 86 7 118 22 30 53 159 51 210 -1 33 0 33 30 27 28
-6 30 -5 27 16 -2 17 -13 26 -36 33 -21 6 -39 20 -49 39 -8 17 -28 48 -44 70
-36 50 -36 59 0 99 l28 32 17 -32 c14 -26 78 -72 101 -72 4 0 5 15 4 33 -4 41
4 53 40 60 21 4 32 15 40 37 6 17 15 29 20 26 15 -9 42 39 29 52 -6 6 -15 39
-20 72 -4 34 -15 71 -23 83 -23 33 -18 40 13 18 25 -17 34 -19 68 -10 53 15
72 33 54 54 -15 19 -5 34 12 17 7 -7 20 -12 29 -12 24 0 62 55 54 79 -3 12 0
21 10 25 27 10 16 24 -25 31 l-39 7 49 59 c28 33 50 67 50 75 0 7 9 14 19 14
11 0 34 12 51 27 l32 27 -21 17 c-45 37 -13 40 35 4 18 -14 39 -25 46 -24 22
1 108 143 108 178 0 39 21 49 56 26 40 -26 50 -7 29 55 -9 28 -15 54 -12 57 3
3 22 -18 42 -46 20 -28 43 -51 51 -51 17 0 34 32 32 62 -2 29 27 74 52 81 11
3 28 19 37 37 15 26 22 30 46 26 38 -8 67 23 67 72 0 27 3 33 10 22 5 -8 10
-25 10 -37 0 -13 4 -23 8 -23 17 0 32 25 32 52 0 23 9 34 48 58 45 28 72 63
72 94 0 7 11 35 25 61 14 26 32 82 40 124 9 43 24 87 35 101 11 14 32 49 45
78 18 38 30 52 46 52 33 0 59 19 59 43 0 12 12 40 25 62 31 50 31 59 0 51 -20
-5 -27 -1 -39 22 -8 16 -13 38 -10 49 6 24 -19 53 -46 53 -31 0 -40 28 -40
121 0 33 -3 37 -30 42 -38 8 -40 34 -4 67 17 17 23 31 20 46 -6 22 41 75 78
88 18 6 18 7 1 26 -14 16 -15 20 -4 20 27 0 39 21 27 44 -8 15 -8 21 1 24 16
5 14 29 -6 58 -15 24 -15 27 15 70 38 53 42 79 11 71 -29 -8 -69 9 -69 28 0
19 39 35 86 35 37 0 104 44 104 68 0 6 -11 22 -25 34 -13 11 -22 25 -19 30 8
13 86 -1 106 -19 16 -14 20 -14 43 1 33 22 32 35 -5 43 -16 3 -30 9 -30 13 0
5 9 6 20 3 11 -3 27 -2 36 1 15 6 15 8 1 24 -9 10 -17 44 -21 82 -3 36 -5 70
-6 75 -1 6 2 29 6 53 l7 43 27 -26 c20 -19 36 -26 56 -23 26 3 29 8 32 41 l3
38 47 -42 c26 -22 59 -47 75 -55 15 -8 27 -19 27 -25 0 -6 14 0 31 12 26 18
30 27 25 50 -5 28 -4 29 32 30 124 2 237 11 253 19 10 6 27 10 38 10 12 0 21
1 21 3 0 1 -16 47 -35 102 -24 70 -54 128 -99 195 -111 165 -121 200 -86 305
20 60 22 82 18 194 -6 144 -11 160 -118 346 l-63 110 18 45 c10 25 20 66 22
93 7 64 -13 93 -69 104 l-43 9 -3 182 c-2 146 1 189 13 218 l15 37 -58 56
c-33 31 -69 72 -81 93 -12 20 -34 41 -49 46 -21 7 -31 20 -41 53 -21 71 -48
99 -130 136 -119 55 -209 85 -232 78 -15 -5 -33 5 -73 42 -29 26 -72 59 -96
73 -24 14 -75 57 -114 96 -39 39 -97 88 -128 109 -47 30 -58 43 -58 65 0 32
-31 67 -76 86 -32 14 -54 15 -141 7z m-362 -678 c86 -36 171 -65 188 -65 25 0
31 -4 29 -17 -2 -14 9 -21 52 -31 77 -19 90 -36 20 -28 -63 8 -234 70 -269 97
-15 12 -40 19 -68 19 -50 0 -97 21 -113 49 -12 23 -13 41 -3 41 4 0 77 -29
164 -65z m-1783 -4737 c28 -11 52 -23 52 -28 0 -17 34 -20 51 -4 17 16 19 16
25 -1 5 -13 0 -24 -19 -39 -20 -16 -24 -25 -16 -38 11 -19 69 -26 69 -8 0 23
28 7 43 -25 25 -52 21 -60 -14 -31 -37 31 -84 34 -98 7 -8 -14 -4 -40 15 -102
25 -86 26 -137 1 -158 -20 -16 -55 14 -63 54 -4 23 -1 41 10 57 20 29 21 97 0
126 -8 12 -32 31 -53 41 -20 11 -44 27 -51 36 -12 15 -12 18 3 26 25 14 21 24
-23 65 -22 20 -37 41 -34 46 6 9 20 6 102 -24z m132 -2075 c-3 -77 -1 -82 31
-98 17 -9 40 -32 51 -51 16 -28 25 -34 42 -30 44 13 106 18 106 10 0 -5 -19
-24 -41 -43 -36 -30 -43 -32 -66 -22 -21 10 -30 9 -50 -5 -23 -14 -27 -15 -41
0 -9 8 -18 35 -22 58 -6 43 -9 46 -42 33 -26 -10 -34 21 -13 45 18 20 17 22
-5 70 -26 56 -18 80 27 80 23 0 24 -3 23 -47z m897 -1368 c43 -44 75 -56 88
-34 5 7 25 8 55 4 29 -4 56 -2 69 5 18 9 32 4 89 -30 38 -22 73 -40 79 -40 7
0 13 14 15 32 4 41 19 45 40 9 9 -17 38 -41 66 -55 31 -16 53 -35 57 -48 4
-13 21 -37 38 -55 26 -28 28 -33 13 -39 -9 -4 -37 -4 -62 -1 -33 3 -50 0 -67
-13 -20 -16 -25 -16 -42 -4 -26 20 -34 18 -47 -11 -15 -32 -51 -31 -56 2 -2
13 -18 33 -35 45 -18 12 -61 48 -97 80 -36 32 -79 62 -96 67 -21 6 -70 1 -160
-15 -121 -22 -193 -30 -183 -20 2 3 46 11 97 20 129 20 146 38 97 102 -14 18
-25 35 -25 38 0 17 27 1 67 -39z m-1356 -175 c11 -6 31 -29 44 -50 20 -32 31
-40 56 -40 24 0 32 -6 43 -32 17 -39 13 -52 -31 -101 -42 -47 -43 -74 -3 -91
30 -12 30 -13 11 -30 -16 -14 -19 -31 -19 -89 0 -65 -3 -73 -26 -90 -14 -10
-35 -36 -47 -57 -21 -36 -26 -39 -113 -59 l-91 -21 -38 -60 c-20 -33 -42 -60
-47 -60 -15 0 -12 49 6 97 9 24 14 46 11 49 -3 3 -23 8 -44 11 -46 6 -86 -17
-65 -38 19 -20 14 -38 -14 -45 -18 -5 -31 -19 -44 -49 -11 -25 -32 -51 -52
-63 -18 -11 -49 -37 -67 -56 -41 -42 -55 -46 -39 -11 9 19 9 28 0 37 -9 9 -25
3 -65 -25 -67 -46 -87 -48 -87 -7 0 17 4 30 9 30 19 0 132 102 159 142 25 39
26 42 8 52 -81 49 -84 72 -16 150 52 59 53 63 50 109 -1 22 9 37 51 75 28 26
55 48 59 50 15 6 58 -50 64 -83 15 -79 107 -131 122 -69 12 49 -3 151 -30 204
-21 40 -26 64 -26 120 0 75 10 88 30 40 8 -19 20 -30 32 -30 19 0 19 8 1 58
-3 7 3 12 15 12 22 0 66 -47 77 -81 5 -14 14 -19 28 -17 20 3 22 9 21 66 -1
59 0 62 23 62 13 0 33 -5 44 -10z m950 -106 c9 -11 22 -14 43 -9 76 16 102 16
121 1 20 -14 19 -15 -15 -51 -47 -50 -80 -65 -138 -65 -63 0 -89 18 -72 50 15
28 5 36 -60 45 -55 8 -83 21 -60 29 62 21 164 21 181 0z m-361 -386 c-1 -22
-40 -198 -55 -245 -6 -18 -1 -26 29 -44 20 -11 36 -23 36 -26 0 -3 -12 -16
-26 -29 -17 -16 -32 -22 -47 -18 -18 4 -30 -3 -54 -33 -47 -59 -83 -139 -90
-196 -9 -76 -142 -352 -178 -369 -22 -10 -28 -9 -36 3 -17 27 -9 60 31 127 34
56 39 72 33 97 -18 70 -7 118 60 252 36 71 74 157 85 190 28 85 43 110 111
192 34 40 61 78 61 85 0 14 20 36 32 36 4 0 8 -10 8 -22z"/>
<path d="M3340 3811 c0 -11 12 -23 30 -31 16 -7 36 -23 45 -36 9 -14 20 -22
25 -19 19 12 10 47 -19 76 -34 34 -81 40 -81 10z"/>
<path d="M3518 3779 c-44 -25 4 -64 87 -71 49 -4 58 20 21 57 -27 27 -76 33
-108 14z"/>
<path d="M4140 4009 c-25 -45 9 -58 53 -21 27 23 21 42 -13 42 -19 0 -33 -7
-40 -21z"/>
<path d="M4043 3908 c-40 -29 -48 -47 -28 -67 14 -14 18 -12 48 24 17 22 32
44 32 49 0 18 -21 16 -52 -6z"/>
<path d="M3956 3494 c-30 -31 -35 -64 -8 -64 16 0 62 63 62 84 0 15 -30 4 -54
-20z"/>
<path d="M3882 3374 c-24 -16 -29 -39 -11 -49 11 -8 45 19 60 47 13 23 -17 25
-49 2z"/>
<path d="M4371 2866 c-16 -19 -3 -45 26 -52 34 -9 50 9 35 41 -13 27 -43 33
-61 11z"/>
<path d="M3251 2796 c-11 -13 -10 -24 5 -61 12 -29 24 -44 34 -42 22 4 17 74
-7 98 -17 18 -21 18 -32 5z"/>
<path d="M620 2738 c-39 -34 -70 -65 -70 -69 0 -5 12 -23 28 -40 l27 -31 29
23 c24 19 31 21 49 9 19 -11 24 -9 49 19 32 35 37 84 13 118 -28 41 -51 35
-125 -29z"/>
<path d="M662 2587 c-17 -20 -42 -84 -42 -107 0 -31 22 -24 65 20 35 35 38 43
29 67 -11 31 -35 41 -52 20z"/>
<path d="M4353 2461 c-19 -27 -36 -41 -53 -42 -32 -2 -32 -2 -52 6 -18 7 -21
3 -32 -48 -8 -34 -21 -28 -29 13 -4 16 -12 30 -19 29 -21 -1 -132 -93 -144
-120 -45 -97 -65 -130 -113 -181 l-54 -58 16 -53 c38 -134 38 -128 15 -169
-17 -30 -19 -41 -10 -50 7 -7 12 -26 12 -44 0 -17 9 -43 20 -57 11 -14 20 -36
20 -50 0 -14 7 -28 16 -31 13 -5 11 -12 -16 -42 -59 -67 -23 -122 45 -69 42
31 61 63 47 77 -7 7 -1 30 18 69 21 44 42 70 85 104 72 56 93 83 71 91 -27 11
-17 33 27 60 23 14 48 33 55 42 19 24 15 52 -8 52 -28 0 -48 37 -55 105 -9 74
8 145 33 145 18 0 152 163 152 185 0 7 12 15 28 18 69 16 66 40 -5 52 -41 6
-43 5 -70 -34z"/>
<path d="M3343 1872 c-17 -11 -39 -66 -57 -143 -22 -96 -93 -260 -124 -288
-30 -27 -72 -124 -108 -251 -20 -72 -24 -107 -24 -225 0 -147 7 -178 33 -156
21 17 64 127 72 186 4 28 20 84 35 125 41 111 120 364 120 386 0 10 16 64 35
119 42 118 75 237 68 248 -5 9 -35 9 -50 -1z"/>
</g>
</svg>
