<?xml version="1.0" standalone="no"?>
<!DOCTYPE svg PUBLIC "-//W3C//DTD SVG 20010904//EN"
 "http://www.w3.org/TR/2001/REC-SVG-20010904/DTD/svg10.dtd">
<svg version="1.0" xmlns="http://www.w3.org/2000/svg"
 width="1280.000000pt" height="1280.000000pt" viewBox="0 0 1280.000000 1280.000000"
 preserveAspectRatio="xMidYMid meet">
<metadata>
Created by potrace 1.15, written by Peter Selinger 2001-2017
</metadata>
<g transform="translate(0.000000,1280.000000) scale(0.100000,-0.100000)"
fill="#000000" stroke="none">
<path d="M9071 9562 c-9 -7 -15 -48 -21 -133 -4 -71 -14 -139 -23 -159 -8 -19
-25 -80 -36 -135 -29 -134 -23 -125 -69 -113 -61 15 -126 -17 -152 -74 -13
-28 -42 -62 -83 -96 -67 -55 -77 -74 -77 -160 0 -42 -27 -95 -43 -86 -7 4 -26
18 -43 31 -37 27 -50 28 -114 7 l-49 -16 -54 31 c-30 17 -61 31 -70 31 -9 0
-26 -19 -39 -42 -20 -37 -28 -43 -51 -40 -22 3 -36 -5 -65 -37 l-37 -40 -23
19 c-32 27 -86 40 -161 40 -71 0 -235 35 -249 53 -17 23 -21 47 -9 57 7 5 23
18 36 28 27 21 23 57 -9 67 -25 8 -146 90 -185 125 -66 59 -186 88 -217 53
-28 -32 -30 -65 -12 -193 l18 -126 -48 -77 c-43 -70 -105 -137 -125 -137 -4 0
-49 28 -100 62 -73 48 -103 62 -141 66 -34 3 -55 11 -71 28 -28 29 -70 31 -94
4 -26 -28 -33 -121 -11 -139 20 -17 20 -35 -3 -154 -15 -79 -27 -110 -59 -160
-23 -34 -53 -88 -67 -120 -15 -31 -36 -62 -47 -68 -12 -6 -70 -20 -130 -30
-70 -12 -135 -30 -186 -52 -42 -19 -92 -38 -110 -42 -19 -4 -58 -27 -89 -52
-30 -25 -70 -51 -89 -59 -19 -8 -61 -42 -92 -76 -31 -33 -83 -81 -115 -105
-32 -25 -63 -56 -68 -70 -15 -40 9 -98 66 -162 73 -82 105 -125 105 -143 0 -9
34 -53 75 -98 103 -115 106 -126 55 -238 -60 -133 -59 -135 72 -270 48 -50 96
-109 107 -131 l21 -41 -31 -42 c-30 -43 -30 -43 -28 -162 4 -134 -2 -146 -71
-146 -34 0 -91 34 -203 121 -37 29 -87 127 -80 160 5 28 -43 135 -71 158 -11
9 -40 12 -94 10 -74 -4 -82 -6 -125 -42 -26 -21 -56 -37 -71 -37 -28 0 -154
29 -256 58 -36 10 -81 17 -101 15 -41 -5 -69 15 -69 51 0 46 -22 51 -112 25
-45 -13 -92 -32 -105 -42 -27 -22 -30 -64 -7 -108 19 -37 11 -73 -14 -60 -61
32 -322 7 -399 -39 -30 -17 -41 -19 -66 -10 -47 16 -94 12 -140 -12 -35 -19
-58 -23 -137 -23 -52 0 -101 -4 -107 -8 -8 -5 -13 -29 -13 -57 0 -29 -6 -54
-14 -63 -9 -8 -47 -17 -97 -21 -133 -11 -219 -59 -219 -123 0 -25 -4 -33 -18
-33 -10 0 -40 -11 -67 -25 -36 -18 -52 -21 -62 -13 -7 6 -23 7 -35 3 -13 -4
-50 -8 -82 -10 -46 -3 -68 -10 -102 -34 -24 -18 -55 -31 -72 -31 -39 0 -89 35
-134 95 -24 32 -56 59 -92 77 -58 29 -72 43 -56 53 5 3 10 19 10 34 0 35 -19
42 -95 34 -48 -5 -59 -2 -106 27 -56 34 -65 35 -184 10 -110 -23 -225 1 -245
51 -10 24 -18 29 -39 27 -24 -3 -26 -8 -29 -53 -2 -27 4 -82 14 -121 l17 -71
-76 -135 c-41 -74 -82 -152 -91 -172 -8 -20 -20 -36 -26 -36 -6 0 -38 -25 -70
-56 -55 -52 -59 -54 -69 -35 -6 11 -11 44 -11 74 0 112 -26 187 -64 187 -5 0
-29 -21 -53 -47 l-44 -47 -32 32 c-29 29 -33 40 -37 104 l-5 72 -73 44 c-52
31 -78 54 -92 81 -10 21 -25 43 -33 49 -23 19 -129 51 -168 52 -42 0 -50 8
-69 68 -26 84 -78 76 -119 -19 -13 -30 -27 -61 -31 -69 -5 -10 -31 -18 -76
-23 -94 -10 -129 -23 -159 -58 -28 -34 -32 -66 -10 -95 8 -10 15 -31 15 -45 0
-21 -7 -28 -40 -39 -21 -7 -54 -25 -72 -41 -32 -26 -32 -29 -18 -55 23 -41 65
-67 118 -74 l47 -6 -68 -67 c-72 -70 -97 -120 -97 -193 0 -42 19 -60 73 -68
63 -10 100 -52 116 -134 9 -46 9 -67 1 -77 -6 -7 -13 -36 -17 -64 -5 -47 -4
-51 21 -62 21 -10 33 -9 66 4 38 14 41 14 53 -3 7 -10 29 -26 49 -36 20 -9 41
-27 47 -40 19 -42 68 -64 144 -64 l67 0 0 -63 c0 -58 2 -65 33 -93 17 -16 59
-47 92 -68 33 -22 71 -47 85 -57 107 -80 260 -112 339 -71 40 20 45 27 66 104
13 50 19 59 45 65 16 5 51 29 78 55 l49 47 29 -20 c16 -10 42 -19 58 -19 l29
0 -7 -83 -7 -82 33 -32 c53 -50 172 -71 222 -38 21 14 30 14 87 1 72 -17 89
-34 89 -88 0 -52 24 -70 123 -90 103 -21 140 -21 198 -4 26 8 64 12 86 9 34
-4 43 -1 70 26 17 17 47 60 67 95 33 59 36 71 36 145 0 78 1 81 23 81 12 0 38
13 57 28 19 16 83 54 141 84 l106 57 51 -30 c76 -43 108 -39 193 23 13 9 22 7
44 -10 36 -29 73 -28 115 3 19 14 40 25 47 25 7 0 52 -11 99 -25 47 -14 99
-25 115 -25 49 0 294 68 373 104 42 19 102 51 134 70 53 33 178 73 189 62 3
-3 2 -21 -1 -41 -10 -52 -37 -75 -89 -75 -24 0 -52 -6 -62 -14 -19 -14 -19
-16 12 -113 18 -54 35 -109 39 -123 4 -14 27 -49 52 -79 42 -50 48 -53 81 -48
31 5 39 2 55 -20 19 -25 19 -27 1 -72 -10 -25 -20 -67 -23 -92 -3 -41 -1 -47
18 -52 12 -3 37 1 57 9 19 9 41 13 48 10 7 -2 23 -31 35 -63 12 -32 29 -66 38
-77 27 -29 82 -52 157 -66 93 -17 114 -26 152 -62 26 -25 36 -29 60 -23 35 9
67 9 168 -2 89 -10 122 -24 191 -84 l48 -41 66 6 c250 25 317 16 425 -54 68
-44 91 -48 175 -25 79 21 98 19 131 -16 25 -27 32 -29 66 -23 21 4 54 12 73
19 29 10 41 10 61 0 13 -7 47 -14 74 -16 48 -2 230 -61 249 -80 16 -15 57 -11
121 12 76 27 157 22 235 -15 38 -18 72 -26 110 -26 30 0 60 -4 65 -8 6 -4 28
-31 49 -60 21 -30 49 -58 62 -63 22 -8 120 0 210 17 21 4 34 1 43 -10 16 -19
83 -21 129 -5 29 10 34 8 63 -20 18 -19 41 -31 56 -31 18 0 38 -14 66 -45 29
-33 48 -45 68 -45 32 0 67 39 76 82 4 20 16 33 42 44 115 52 118 54 133 93 15
38 18 39 74 46 91 10 101 17 141 101 32 67 42 79 86 102 27 15 75 46 107 69
100 72 113 76 240 79 168 3 355 12 435 20 67 6 94 17 195 74 l34 20 26 -24
c58 -56 111 -59 159 -7 33 35 44 40 126 55 50 9 125 19 168 22 l78 7 70 -72
c39 -39 77 -71 84 -71 28 0 37 29 33 101 -3 65 -7 74 -35 99 -17 16 -29 31
-26 33 3 3 5 44 5 91 0 93 -3 88 68 100 48 8 118 67 262 221 67 72 134 135
149 142 15 6 34 21 41 32 11 18 23 21 75 21 46 0 74 6 111 25 28 14 54 25 59
25 6 0 18 9 28 20 22 24 11 42 -43 69 l-34 18 30 12 c85 35 84 87 -2 125 -54
24 -55 25 -49 59 4 29 1 37 -25 58 l-31 24 35 70 c32 64 35 75 30 129 -3 33
-12 69 -20 80 -11 17 -11 30 -1 69 18 69 38 87 100 87 41 0 63 7 111 35 81 49
114 86 114 132 0 31 8 43 56 88 47 43 55 56 52 81 -2 21 -12 34 -38 48 -32 17
-35 22 -37 70 -3 68 -16 76 -121 76 l-84 0 -37 38 c-20 21 -53 49 -73 63 -21
13 -38 26 -38 29 0 3 15 14 33 25 17 10 55 41 83 67 44 42 53 46 64 33 22 -26
69 -18 115 20 23 19 45 31 49 28 3 -4 6 -35 6 -70 0 -60 1 -63 24 -63 14 0 30
-10 40 -25 13 -19 25 -25 54 -25 21 0 47 -7 58 -15 31 -23 62 -18 78 13 32 57
32 57 58 27 l24 -27 114 32 c168 46 178 50 184 65 3 8 -3 57 -14 107 -11 51
-20 111 -20 132 0 22 -7 47 -15 56 -14 16 -13 20 20 49 44 38 56 75 54 155 -3
58 -2 60 27 69 59 17 74 29 74 58 0 44 -10 59 -59 83 -25 13 -57 35 -70 49
-24 27 -24 24 -5 130 5 29 1 36 -47 75 -30 25 -74 49 -106 58 -61 18 -66 31
-28 86 42 63 28 123 -48 205 -34 36 -46 59 -52 93 -5 35 -15 52 -43 77 l-36
31 17 70 c9 38 17 81 17 94 0 15 11 32 28 45 15 11 42 46 61 77 l34 57 -12
117 c-28 276 -37 302 -121 344 -48 25 -60 27 -91 18 -28 -8 -45 -7 -72 5 -20
8 -54 15 -76 15 -36 0 -44 5 -75 45 -19 26 -47 56 -63 67 -15 12 -46 38 -69
59 -48 43 -86 54 -159 44 -75 -9 -105 -38 -105 -103 0 -33 -5 -54 -16 -63 -37
-30 -465 -5 -536 32 -13 6 -55 43 -94 80 -40 38 -80 69 -89 69 -46 0 -101 29
-176 92 -89 75 -121 92 -155 84 -13 -4 -34 -2 -49 4 -17 6 -50 6 -100 -2 l-75
-12 -40 33 c-45 36 -170 91 -206 91 -13 0 -53 11 -90 25 -38 14 -87 25 -116
25 -37 0 -57 -6 -82 -25 -43 -32 -82 -32 -108 0 -36 47 -99 75 -179 81 -41 3
-80 1 -88 -4z"/>
</g>
</svg>
